<?xml version="1.0" standalone="no"?>
<!DOCTYPE svg PUBLIC "-//W3C//DTD SVG 20010904//EN"
 "http://www.w3.org/TR/2001/REC-SVG-20010904/DTD/svg10.dtd">
<svg version="1.0" xmlns="http://www.w3.org/2000/svg"
 width="1080.000000pt" height="1080.000000pt" viewBox="0 0 1080.000000 1080.000000"
 preserveAspectRatio="xMidYMid meet">
<metadata>
Created by potrace 1.11, written by Peter Selinger 2001-2013
</metadata>
<g transform="translate(0.000000,1080.000000) scale(0.100000,-0.100000)"
fill="#000000" stroke="none">
<path d="M5051 10566 c-1 -16 -3 -17 -18 -5 -10 8 -14 9 -10 2 4 -6 3 -14 -3
-18 -5 -3 -10 -2 -10 4 0 12 -59 4 -74 -10 -6 -5 -15 -9 -20 -9 -6 0 -4 5 4
10 12 7 10 9 -7 7 -12 0 -20 -4 -17 -8 2 -4 -3 -9 -11 -13 -9 -3 -15 0 -15 10
0 8 -5 12 -11 9 -6 -4 -8 -14 -4 -23 5 -13 2 -12 -15 3 -19 18 -20 18 -20 -1
0 -10 -4 -15 -8 -9 -11 16 -44 18 -53 3 -7 -10 -9 -10 -9 1 0 11 -4 10 -13 -4
-11 -14 -16 -15 -22 -5 -6 9 -4 11 5 5 8 -5 11 -4 7 3 -4 5 -15 9 -25 7 -9 -2
-21 -4 -25 -4 -5 -1 -6 -5 -3 -9 3 -5 -1 -9 -9 -9 -8 0 -12 4 -9 9 3 4 -2 5
-10 2 -9 -3 -16 -11 -16 -17 0 -6 -3 -7 -7 -4 -3 4 -13 1 -21 -6 -13 -9 -14
-9 -8 1 4 6 3 12 -1 12 -5 0 -15 -6 -22 -12 -8 -7 -11 -8 -8 -2 3 5 -4 10 -18
10 -13 0 -21 -5 -19 -11 3 -8 -11 -11 -41 -10 -27 0 -50 -4 -57 -12 -6 -7 -27
-13 -47 -13 -20 0 -43 -6 -50 -12 -11 -10 -13 -10 -7 0 4 6 3 12 -3 12 -5 0
-12 -6 -14 -12 -4 -10 -6 -10 -6 0 -1 6 -6 12 -12 12 -5 0 -8 -4 -5 -9 7 -11
-17 -21 -54 -21 -16 0 -31 -6 -33 -12 -4 -10 -6 -10 -6 0 -1 6 -9 12 -18 12
-15 0 -16 -2 -3 -10 12 -8 8 -10 -15 -11 -16 -1 -34 -3 -40 -4 -5 -2 -18 -3
-28 -4 -10 0 -15 -5 -12 -11 4 -6 -10 -10 -35 -10 -30 0 -39 -3 -34 -12 6 -10
4 -10 -7 0 -7 6 -18 12 -24 12 -5 0 -3 -5 5 -10 12 -8 11 -10 -7 -10 -12 0
-23 3 -26 8 -2 4 -2 1 -1 -5 2 -8 -8 -13 -26 -13 -17 0 -30 -5 -30 -11 0 -6
-7 -9 -15 -5 -8 3 -15 1 -15 -4 0 -5 -7 -7 -15 -4 -10 4 -15 0 -16 -12 0 -11
-3 -14 -6 -7 -3 10 -9 10 -26 0 -12 -7 -25 -16 -28 -21 -4 -4 -10 -3 -14 3 -5
9 -11 9 -22 -1 -8 -6 -22 -13 -31 -14 -8 -2 -18 -8 -22 -15 -4 -6 -20 -11 -34
-11 -19 0 -26 -5 -22 -14 3 -8 1 -14 -4 -14 -6 0 -10 5 -10 10 0 18 -27 10
-44 -12 -9 -13 -14 -17 -11 -10 3 6 1 12 -4 12 -6 0 -11 -5 -11 -11 0 -5 -4
-7 -10 -4 -5 3 -10 1 -10 -5 0 -7 -6 -10 -13 -7 -8 3 -20 1 -28 -4 -12 -7 -12
-9 0 -9 8 0 11 -3 8 -6 -4 -4 -13 -1 -21 5 -17 15 -40 5 -33 -13 4 -9 -4 -12
-24 -11 -15 1 -26 -2 -23 -7 5 -8 -17 -12 -44 -9 -7 1 -11 -4 -10 -11 2 -7 -7
-12 -20 -13 -13 0 -28 -8 -33 -17 -6 -11 -16 -15 -27 -11 -15 6 -15 4 -4 -9
11 -14 10 -16 -7 -11 -12 3 -18 10 -15 17 3 6 -3 2 -13 -10 -10 -11 -24 -19
-31 -16 -8 2 -10 -2 -5 -15 6 -16 5 -16 -10 -4 -11 9 -17 10 -17 2 0 -6 -8
-11 -17 -11 -15 0 -16 -2 -3 -10 13 -9 13 -10 0 -11 -8 -1 -23 -1 -32 0 -10 1
-29 -10 -43 -25 -14 -15 -25 -22 -25 -15 0 6 -10 11 -22 10 -21 0 -22 -1 -3
-8 17 -7 17 -8 -8 -15 -15 -3 -27 -11 -27 -16 0 -6 -9 -10 -20 -10 -12 0 -20
-7 -21 -17 0 -11 -3 -13 -6 -5 -3 8 -11 4 -25 -13 -11 -14 -25 -25 -31 -25 -7
0 -4 7 6 14 9 7 17 17 17 21 0 5 -11 -2 -25 -15 -14 -13 -25 -20 -25 -17 0 4
-8 -1 -18 -10 -11 -10 -17 -21 -15 -25 2 -4 -2 -10 -8 -14 -8 -4 -9 -3 -5 4 4
7 1 12 -9 12 -9 0 -13 -4 -10 -10 3 -5 -1 -10 -9 -10 -9 0 -16 -4 -16 -9 0 -5
-9 -11 -21 -14 -12 -3 -19 -10 -16 -14 5 -8 -8 -12 -50 -15 -7 -1 -10 -5 -7
-9 3 -5 -7 -11 -21 -15 -13 -3 -23 -10 -20 -14 8 -12 -23 -33 -36 -24 -8 4 -9
3 -5 -4 4 -7 2 -12 -4 -12 -6 0 -9 -4 -5 -9 3 -5 1 -12 -5 -16 -5 -3 -10 1
-10 10 0 9 -5 13 -10 10 -6 -4 -7 -11 -4 -17 4 -7 2 -8 -5 -4 -6 4 -14 0 -17
-8 -3 -9 -13 -16 -21 -16 -8 0 -12 -4 -9 -9 3 -5 -1 -11 -9 -14 -10 -4 -12 -1
-8 10 5 13 2 12 -13 -3 -13 -12 -16 -22 -10 -26 6 -4 0 -8 -13 -8 -17 0 -22
-4 -17 -16 3 -8 2 -13 -3 -9 -5 3 -12 -1 -14 -7 -3 -8 -6 -6 -6 5 -1 9 -6 17
-11 17 -6 0 -9 -6 -8 -12 2 -7 -3 -12 -11 -10 -12 3 -12 0 -2 -12 11 -13 10
-15 -7 -11 -12 2 -23 -3 -26 -11 -3 -9 -10 -12 -16 -9 -5 3 -7 0 -4 -8 3 -8 0
-18 -7 -23 -8 -5 -10 -3 -4 7 5 8 0 7 -12 -4 -11 -9 -23 -14 -26 -10 -4 3 -7
1 -7 -5 0 -7 5 -12 10 -12 6 0 10 -5 10 -11 0 -9 -4 -9 -13 0 -11 8 -19 6 -35
-8 -12 -10 -22 -25 -22 -32 0 -11 2 -11 10 1 5 8 10 10 10 4 0 -6 -3 -13 -6
-17 -9 -8 -35 4 -29 13 3 5 1 11 -4 14 -5 4 -13 -8 -17 -26 -6 -29 -8 -30 -15
-13 -6 17 -8 17 -8 3 -1 -10 -8 -18 -17 -18 -8 0 -12 -4 -9 -10 3 -5 -6 -12
-21 -16 -19 -5 -22 -9 -12 -15 10 -7 8 -9 -6 -9 -11 0 -16 -3 -12 -7 3 -4 -4
-13 -16 -20 -15 -8 -18 -13 -8 -13 8 0 0 -7 -18 -15 -21 -9 -31 -19 -26 -26 4
-8 3 -9 -4 -5 -8 4 -12 0 -12 -11 0 -14 -2 -15 -9 -4 -6 9 -11 10 -15 2 -4 -6
-4 -16 -1 -22 4 -6 0 -9 -11 -7 -10 2 -19 -1 -19 -7 0 -5 -19 -29 -42 -52 -42
-42 -62 -55 -47 -31 4 7 3 8 -5 4 -8 -6 -9 -11 -1 -21 8 -9 4 -11 -17 -8 -22
2 -24 2 -9 -5 18 -8 18 -9 2 -15 -10 -4 -22 -5 -27 -1 -5 3 -9 1 -9 -5 0 -5 8
-12 17 -14 13 -3 11 -5 -7 -7 -14 -1 -27 -2 -30 -2 -3 0 -6 -8 -7 -18 -2 -25
-40 -63 -47 -47 -2 7 -5 2 -5 -10 -1 -13 -10 -24 -22 -28 -11 -4 -24 -18 -30
-31 -5 -14 -13 -22 -19 -19 -5 3 -10 -1 -10 -10 0 -8 -7 -18 -15 -21 -8 -4
-15 -16 -15 -28 0 -16 -2 -18 -9 -7 -6 10 -11 4 -16 -20 -7 -29 -9 -31 -16
-14 -6 15 -8 16 -8 4 -1 -9 -8 -20 -17 -23 -9 -3 -14 -13 -11 -21 4 -8 -2 -16
-13 -20 -12 -4 -17 -12 -13 -21 3 -9 0 -14 -7 -12 -7 2 -17 -8 -21 -22 -5 -19
-7 -20 -8 -6 -2 33 -16 5 -20 -39 -1 -5 -6 -3 -11 5 -8 12 -10 11 -10 -7 0
-12 -5 -25 -12 -29 -7 -5 -8 -3 -3 6 5 9 4 11 -3 6 -7 -4 -12 -16 -12 -27 0
-11 -4 -18 -9 -15 -5 4 -13 -8 -17 -26 -7 -32 -8 -33 -15 -8 -6 23 -7 23 -8 3
-2 -33 -12 -54 -23 -47 -6 4 -9 1 -6 -7 2 -7 -7 -24 -20 -36 -14 -13 -21 -23
-16 -24 5 0 -4 -7 -21 -14 -20 -10 -24 -14 -12 -15 10 0 15 -5 12 -10 -4 -6
-12 -7 -18 -3 -7 4 -6 -1 2 -10 12 -15 12 -17 -3 -11 -12 5 -19 0 -23 -15 -3
-11 -10 -21 -17 -21 -6 0 -4 -4 4 -9 8 -6 18 -7 24 -4 5 3 6 1 2 -6 -4 -6 -12
-9 -17 -6 -5 4 -9 -2 -10 -12 0 -16 -1 -16 -9 2 -5 11 -9 14 -9 7 -1 -7 -5
-11 -10 -8 -5 4 -7 -4 -4 -16 4 -19 3 -20 -6 -8 -9 12 -11 10 -11 -12 0 -14
-4 -28 -8 -30 -4 -1 -18 -25 -30 -53 -12 -27 -21 -44 -22 -37 0 7 -5 10 -10 7
-6 -4 -8 -11 -5 -16 4 -5 -2 -9 -12 -9 -14 0 -15 -2 -4 -9 11 -7 9 -10 -9 -16
-18 -6 -20 -9 -9 -16 12 -7 11 -9 -1 -9 -12 0 -13 -2 -1 -9 11 -7 9 -10 -7
-16 -12 -3 -21 -9 -20 -13 5 -17 -28 -72 -40 -67 -10 3 -13 -3 -10 -23 2 -19
-1 -26 -11 -24 -12 3 -12 0 -2 -12 12 -15 -1 -32 -17 -22 -5 3 -9 0 -10 -7 -1
-7 -5 -28 -8 -47 -6 -30 -8 -32 -15 -15 -6 16 -8 14 -8 -12 -1 -21 -6 -32 -13
-30 -7 1 -14 -9 -17 -23 -3 -23 -4 -24 -12 -5 -7 19 -8 19 -8 -2 -1 -12 4 -23
11 -25 8 -3 8 -9 0 -24 -6 -10 -12 -15 -12 -11 0 5 -6 2 -13 -5 -16 -17 -40
-71 -28 -64 11 7 8 -20 -4 -31 -4 -4 -5 -2 0 6 5 9 4 12 -3 7 -7 -4 -12 -18
-12 -32 0 -15 -4 -23 -10 -19 -6 4 -7 12 -4 18 4 7 3 8 -2 4 -10 -10 -11 -12
-13 -69 -2 -34 -4 -39 -11 -23 -8 18 -9 18 -10 -5 -2 -14 -2 -28 -1 -32 0 -5
-6 -8 -14 -8 -9 0 -15 -9 -15 -24 0 -13 -6 -27 -12 -29 -10 -4 -10 -6 0 -6 6
-1 12 -11 11 -23 0 -22 -1 -22 -8 -3 -8 19 -8 19 -15 -2 -4 -13 -4 -27 -1 -33
3 -5 -1 -10 -9 -10 -10 0 -16 -9 -16 -25 0 -14 -6 -25 -12 -25 -9 0 -10 -3 -2
-8 13 -8 15 -44 2 -36 -5 3 -5 10 -2 16 4 6 3 8 -3 5 -6 -4 -9 -18 -8 -32 2
-15 -2 -25 -10 -25 -15 0 -30 -64 -19 -82 5 -7 2 -9 -7 -6 -10 4 -15 -1 -17
-15 -1 -17 1 -19 8 -7 7 11 9 10 7 -7 0 -12 -5 -21 -10 -20 -5 1 -12 -11 -14
-28 -2 -16 -8 -34 -14 -39 -5 -6 -9 -21 -10 -35 0 -24 -1 -24 -9 -6 -7 17 -8
16 -10 -10 -3 -76 -6 -85 -20 -86 -10 0 -11 -2 -2 -6 6 -2 12 -9 12 -14 0 -6
-4 -7 -10 -4 -6 4 -10 -7 -10 -24 0 -18 -5 -31 -12 -31 -9 0 -9 -3 -3 -8 14
-9 13 -32 -2 -57 -13 -23 -13 -23 -14 -67 -1 -31 -1 -32 -9 -8 -7 21 -8 18
-10 -20 -1 -25 -3 -56 -4 -70 0 -14 -5 -28 -10 -32 -12 -8 -17 -40 -5 -32 5 3
9 0 9 -5 0 -6 -4 -11 -10 -11 -5 0 -10 -7 -10 -16 0 -8 -5 -12 -10 -9 -6 3
-10 2 -10 -4 0 -5 6 -12 13 -15 9 -5 9 -7 0 -12 -7 -3 -13 -10 -13 -15 0 -6 6
-7 13 -3 9 6 9 4 1 -7 -16 -21 -26 -51 -14 -44 6 3 10 1 10 -4 0 -6 -4 -11 -8
-11 -11 0 -9 -31 3 -49 5 -9 4 -12 -2 -8 -6 4 -13 -2 -16 -13 -3 -11 -1 -18 3
-15 10 6 2 -32 -13 -64 -9 -19 -9 -25 1 -28 6 -3 12 -9 12 -14 0 -6 -5 -7 -12
-3 -7 5 -9 2 -5 -8 3 -9 3 -19 -1 -23 -8 -8 -9 -13 -11 -66 0 -22 -5 -38 -9
-35 -5 3 -9 -1 -9 -9 0 -8 4 -12 9 -9 4 3 8 0 8 -5 0 -6 -4 -11 -10 -11 -15 0
-12 -47 3 -53 9 -4 9 -6 0 -6 -7 -1 -13 -13 -13 -27 0 -14 4 -23 10 -19 5 3
10 2 10 -4 0 -5 -5 -11 -12 -13 -9 -3 -12 -101 -12 -386 -1 -333 1 -382 14
-383 10 0 11 -2 3 -6 -8 -2 -13 -22 -13 -44 0 -22 4 -38 8 -35 5 3 9 -1 9 -9
0 -8 -4 -12 -9 -9 -15 10 -8 -47 8 -64 15 -15 15 -16 -2 -23 -18 -7 -18 -8 1
-9 20 -1 20 -1 1 -15 -15 -12 -16 -15 -5 -15 10 0 15 -8 14 -23 -2 -13 -8 -21
-16 -19 -10 3 -9 -2 3 -15 16 -18 18 -22 18 -44 0 -5 6 -7 13 -3 9 6 9 5 0 -7
-9 -11 -9 -19 -2 -26 6 -6 11 -27 13 -46 1 -20 5 -39 9 -43 4 -4 2 -13 -4 -21
-9 -10 -7 -13 7 -13 12 0 15 -3 8 -8 -14 -9 -16 -69 -3 -77 5 -4 9 -22 9 -41
0 -20 5 -33 11 -32 6 2 14 -3 17 -11 2 -8 0 -11 -6 -7 -5 3 -13 -1 -16 -10 -3
-8 -2 -12 4 -9 6 3 11 -1 11 -9 2 -26 6 -56 9 -63 1 -5 1 -16 0 -27 -1 -10 3
-15 8 -12 6 3 13 -19 17 -55 5 -41 10 -57 16 -48 5 9 9 -10 9 -51 0 -46 3 -61
10 -50 8 12 10 11 11 -7 1 -13 3 -27 4 -33 1 -5 3 -17 4 -26 1 -9 6 -12 14 -8
10 6 10 4 0 -7 -7 -7 -13 -18 -13 -23 0 -6 5 -4 10 4 8 12 10 11 10 -6 0 -11
6 -26 13 -33 9 -11 9 -13 0 -7 -8 5 -13 1 -13 -9 0 -10 5 -13 12 -9 7 5 8 3 2
-7 -14 -23 -13 -38 2 -32 9 3 14 -2 14 -17 0 -11 4 -18 10 -15 5 3 10 1 10 -4
0 -6 -4 -11 -10 -11 -5 0 -10 -4 -10 -10 0 -5 8 -6 17 -3 16 6 16 5 4 -10 -10
-13 -10 -17 -1 -17 7 0 10 -7 6 -15 -3 -8 0 -15 6 -15 7 0 7 -4 0 -13 -8 -9
-8 -17 0 -27 8 -12 9 -11 4 5 l-6 20 16 -20 c8 -11 20 -19 25 -17 6 1 8 -2 4
-8 -3 -6 -11 -8 -16 -5 -5 3 -6 -1 -3 -9 3 -9 11 -13 16 -10 6 4 5 -4 -2 -16
-8 -15 -8 -20 -1 -16 7 5 11 -6 11 -33 0 -28 4 -40 13 -39 7 2 13 -10 15 -30
2 -18 8 -30 13 -27 8 5 14 -16 10 -37 0 -5 6 -8 15 -8 8 0 12 -5 9 -10 -4 -6
-12 -8 -18 -4 -7 3 -4 -1 5 -9 10 -8 15 -17 11 -20 -3 -4 2 -9 11 -13 10 -4
16 -18 16 -36 0 -17 4 -27 10 -23 5 3 7 0 4 -9 -3 -9 3 -20 15 -28 12 -7 21
-16 21 -21 0 -4 -6 -5 -12 -1 -9 6 -9 3 0 -9 8 -9 10 -22 6 -28 -5 -8 -3 -9 6
-4 10 6 12 4 7 -8 -4 -11 -1 -17 8 -17 12 0 32 -53 27 -73 -1 -4 4 -6 10 -5 8
2 12 -5 10 -15 -2 -10 3 -16 10 -15 8 2 13 -7 14 -22 0 -14 6 -24 12 -22 11 2
17 -26 13 -52 -1 -5 5 -6 14 -3 8 4 15 2 15 -2 0 -5 -6 -12 -12 -14 -8 -3 -7
-6 4 -6 9 -1 20 -6 24 -13 4 -7 3 -8 -4 -4 -7 4 -12 1 -12 -8 0 -10 6 -13 16
-9 10 4 15 1 14 -8 -5 -35 0 -47 19 -42 11 3 21 -2 25 -13 5 -14 4 -15 -8 -5
-12 10 -15 9 -13 -8 1 -14 6 -20 16 -16 12 5 12 3 0 -12 -7 -10 -10 -15 -5
-11 8 7 46 -26 46 -41 0 -5 6 -12 13 -14 7 -3 4 -6 -6 -6 -10 -1 -15 -6 -12
-11 4 -6 11 -8 16 -5 5 4 9 0 9 -8 0 -8 14 -28 30 -45 16 -18 30 -42 31 -54 0
-22 1 -22 9 -3 8 18 9 17 9 -7 1 -27 24 -58 43 -58 6 0 5 -6 -2 -16 -8 -8 -9
-14 -4 -12 5 2 10 -1 11 -5 1 -5 9 -14 18 -21 9 -6 17 -21 18 -33 0 -12 4 -21
7 -21 21 2 29 -4 23 -19 -4 -10 -2 -14 5 -9 10 6 29 -29 24 -47 -1 -4 1 -6 5
-6 5 1 15 1 23 0 13 -1 13 -2 0 -11 -13 -8 -12 -10 4 -10 11 0 16 -5 13 -13
-3 -8 -1 -20 4 -28 7 -11 9 -11 9 -1 0 7 5 10 10 7 6 -4 7 -11 4 -17 -5 -7 -1
-9 9 -5 10 3 17 2 17 -3 0 -6 -6 -10 -12 -10 -7 -1 -2 -7 11 -14 18 -10 20
-15 10 -19 -10 -4 -9 -6 4 -6 9 -1 17 -7 17 -13 0 -9 4 -8 10 2 8 12 10 12 10
1 0 -8 8 -20 18 -27 15 -12 15 -13 0 -8 -13 4 -15 1 -11 -17 4 -13 8 -18 11
-11 5 15 32 -10 32 -30 0 -17 36 -49 45 -40 3 4 3 -2 -1 -12 -5 -14 -4 -17 4
-12 7 4 12 1 12 -8 0 -9 5 -15 12 -14 7 2 12 -4 13 -12 1 -8 6 -14 13 -12 7 1
12 -5 12 -13 0 -8 5 -14 11 -13 6 2 14 -3 17 -11 3 -9 0 -11 -8 -6 -9 6 -11 4
-6 -4 5 -7 14 -10 22 -7 8 3 14 -1 14 -9 0 -8 7 -15 15 -15 8 0 15 -5 15 -11
0 -5 -5 -7 -11 -3 -6 3 -3 -5 6 -20 16 -23 34 -39 20 -17 -3 5 -1 12 5 16 6 4
10 -5 10 -21 0 -21 3 -24 14 -15 11 9 13 6 11 -14 -2 -14 1 -27 6 -31 5 -3 9
2 9 10 0 25 40 -13 41 -39 0 -20 0 -20 9 0 7 17 9 17 9 3 1 -10 1 -21 0 -25
-1 -10 30 -25 40 -18 5 3 12 1 16 -5 3 -5 -1 -10 -10 -10 -9 0 -13 -5 -10 -10
4 -6 11 -8 16 -5 5 4 9 -1 9 -9 0 -9 9 -16 20 -16 16 0 45 -33 43 -50 -1 -3 3
-4 8 -2 5 1 9 -5 9 -13 0 -8 6 -15 13 -15 8 0 19 -11 27 -24 7 -14 23 -27 37
-31 14 -3 21 -10 17 -17 -5 -8 -2 -9 10 -5 13 5 19 1 23 -13 3 -11 9 -17 14
-14 5 3 6 -2 3 -10 -7 -19 7 -21 25 -3 10 10 11 9 6 -5 -4 -11 -2 -18 5 -18 6
0 8 -4 5 -10 -3 -5 1 -10 10 -10 10 0 13 -5 9 -12 -5 -8 -2 -9 9 -5 10 4 17 2
17 -4 0 -6 7 -9 15 -5 8 3 15 1 15 -4 0 -6 -6 -10 -12 -11 -7 -1 -2 -4 12 -8
14 -4 27 -17 31 -31 5 -17 7 -19 8 -7 1 10 6 15 11 12 6 -4 8 -10 5 -15 -5 -8
24 -25 38 -21 4 1 3 -9 -4 -21 -9 -19 -9 -21 2 -10 7 6 20 12 29 11 10 0 11
-2 3 -6 -7 -2 -13 -9 -13 -14 0 -4 8 -5 17 -2 12 5 15 2 10 -10 -3 -9 -2 -17
3 -17 6 0 10 5 10 11 0 7 11 0 25 -15 13 -14 29 -26 34 -26 6 0 7 -7 4 -17 -4
-11 -3 -14 5 -9 14 8 65 -28 54 -38 -3 -4 1 -4 11 0 10 3 17 1 17 -5 0 -6 7
-11 16 -11 20 0 66 -35 57 -44 -3 -3 1 -6 10 -6 9 0 17 -6 17 -12 0 -10 3 -10
9 0 6 10 10 7 15 -12 3 -14 11 -26 17 -26 6 0 8 4 5 8 -3 5 1 9 9 9 8 0 12 -4
9 -9 -3 -4 0 -8 5 -8 6 0 11 -8 11 -17 0 -15 2 -16 10 -3 8 13 10 13 10 -1 0
-11 8 -15 25 -14 14 2 23 0 21 -3 -2 -4 2 -13 10 -20 11 -10 14 -10 15 0 0 7
4 3 9 -9 6 -14 18 -23 30 -23 12 0 32 -11 46 -25 14 -14 33 -25 42 -25 15 0
15 -2 2 -10 -8 -5 -10 -10 -5 -10 6 0 17 6 24 12 11 10 12 10 7 1 -4 -8 2 -15
19 -19 13 -3 22 -10 19 -15 -3 -5 4 -9 16 -9 14 0 19 -4 14 -13 -6 -9 -4 -9 7
1 7 6 18 12 24 12 5 0 3 -5 -5 -10 -12 -7 -8 -11 18 -16 17 -4 32 -10 32 -15
0 -5 7 -9 15 -9 8 0 15 -5 15 -11 0 -5 -6 -7 -12 -3 -7 4 -9 3 -5 -1 10 -12
38 -15 31 -4 -3 5 0 9 5 9 10 0 15 -14 12 -32 0 -4 6 -5 14 -2 8 4 15 1 15 -6
0 -6 4 -9 9 -5 5 3 12 1 16 -4 3 -6 13 -7 22 -4 12 5 14 3 8 -8 -8 -12 -6 -12
9 0 9 8 16 10 15 5 -1 -5 -1 -18 1 -29 l1 -20 9 20 9 20 0 -20 c1 -17 3 -17
11 -5 6 10 10 11 10 3 0 -8 13 -13 30 -13 20 0 30 -5 30 -15 0 -8 8 -15 18
-15 10 0 24 -6 30 -12 10 -10 15 -10 22 2 8 13 10 12 10 -2 0 -12 5 -15 17
-11 10 4 14 2 10 -4 -4 -6 3 -13 14 -16 12 -3 18 -10 14 -16 -3 -6 -2 -11 4
-11 5 0 12 6 14 13 3 6 6 3 7 -8 1 -20 1 -20 15 -1 13 17 15 17 15 3 0 -11 5
-14 15 -10 10 3 15 0 13 -8 -2 -8 7 -15 20 -17 13 -2 26 -10 29 -18 4 -12 8
-12 19 3 11 15 13 16 14 2 0 -16 30 -23 30 -7 0 4 5 8 11 8 5 0 7 -4 4 -10 -3
-5 1 -10 9 -10 9 0 16 -4 16 -9 0 -5 9 -11 21 -14 13 -4 18 -10 13 -18 -4 -8
-3 -10 5 -5 6 4 9 11 7 15 -3 4 2 8 10 8 8 0 13 -6 10 -14 -3 -7 -2 -12 2 -12
32 5 83 -4 96 -16 8 -8 29 -15 46 -15 18 0 29 -4 25 -10 -3 -5 -1 -10 4 -10 6
0 11 5 11 10 0 6 5 10 11 10 5 0 7 -4 4 -10 -3 -5 3 -10 15 -10 14 0 19 -4 14
-13 -5 -8 -2 -8 9 2 15 12 17 11 17 -3 0 -10 5 -14 10 -11 6 4 7 11 4 17 -4 7
-2 8 5 4 6 -4 9 -11 7 -15 -3 -4 9 -9 27 -9 47 -3 65 -7 74 -17 5 -4 1 -5 -7
0 -9 5 -12 5 -7 -1 9 -9 17 -10 78 -13 17 0 28 -5 24 -11 -3 -6 5 -10 19 -10
13 0 26 -5 28 -12 3 -7 11 -9 24 -3 30 13 43 14 50 4 3 -5 10 -7 15 -4 5 3 6
0 4 -7 -4 -10 7 -13 45 -12 27 1 48 -2 45 -7 -3 -4 -12 -6 -20 -2 -8 3 -15 3
-15 0 0 -14 31 -14 45 -1 13 14 15 14 15 0 0 -17 20 -18 32 -1 5 6 8 4 8 -5 0
-12 10 -14 46 -11 27 2 49 -1 53 -8 4 -6 27 -12 52 -12 24 -1 50 -7 58 -13 11
-8 13 -8 8 1 -5 8 -1 11 12 10 11 0 18 -4 15 -8 -2 -4 3 -10 12 -13 8 -3 13
-2 9 3 -6 11 14 9 33 -2 6 -5 16 -6 20 -3 5 3 21 -2 36 -10 32 -16 49 -19 26
-4 -12 8 -9 10 13 10 15 0 27 -4 27 -10 0 -5 8 -10 18 -10 14 0 15 2 2 10 -13
8 -12 10 3 10 9 0 17 -4 17 -10 0 -5 5 -10 11 -10 5 0 7 6 3 13 -6 10 -4 10 7
0 16 -15 33 -17 24 -3 -3 6 -2 10 4 10 5 0 11 -5 13 -11 6 -18 68 -17 78 0 9
15 9 15 10 0 0 -13 14 -15 85 -14 47 0 85 -3 85 -8 0 -4 5 -5 12 -1 7 4 78 8
158 8 117 1 147 -2 158 -14 11 -13 11 -13 7 0 -4 13 12 15 112 15 126 -1 146
2 137 16 -3 5 -1 9 5 9 5 0 12 -6 15 -12 5 -10 7 -10 12 0 3 6 10 12 15 12 6
0 7 -4 4 -10 -3 -5 -2 -10 4 -10 5 0 13 5 16 10 3 6 16 10 28 9 21 -1 20 -2
-3 -9 -23 -8 -23 -8 7 -7 17 1 29 5 27 9 -3 4 23 9 58 9 35 1 77 2 95 2 17 0
31 3 30 6 -1 3 3 6 8 6 6 0 9 -2 8 -5 -1 -3 8 -7 19 -7 19 -2 19 -1 2 11 -16
12 -10 14 45 15 35 0 69 5 76 11 7 5 31 11 54 12 22 1 41 6 41 12 0 6 5 4 10
-4 9 -13 11 -13 20 0 7 11 10 11 10 2 0 -7 5 -10 10 -7 6 4 8 11 5 16 -4 5 3
9 14 9 10 0 22 -6 24 -12 3 -8 6 -5 6 5 1 14 6 17 22 12 14 -5 19 -3 15 3 -7
12 12 11 32 -2 8 -5 20 -2 31 8 10 9 30 16 45 16 16 0 25 4 21 10 -3 6 -1 10
4 10 6 0 11 -4 11 -10 0 -5 5 -10 11 -10 5 0 7 5 3 11 -5 8 1 10 19 7 16 -3
24 -1 20 5 -4 6 2 8 15 5 12 -4 22 -2 22 4 0 5 10 6 21 3 15 -5 19 -4 14 5 -6
9 -2 9 15 0 12 -7 20 -8 17 -3 -3 4 7 17 22 28 25 18 25 18 11 0 -14 -17 -13
-18 3 -12 10 4 23 7 28 7 6 0 7 5 4 10 -4 6 16 10 52 11 48 1 53 3 28 9 -28 7
-26 8 15 9 25 1 52 6 60 12 12 8 9 9 -10 4 -19 -5 -22 -4 -10 4 8 6 39 11 68
11 37 0 54 4 58 15 4 8 18 15 33 15 20 0 23 2 11 10 -12 8 -8 10 15 11 17 1
34 1 39 0 5 -1 4 4 -2 12 -9 11 -8 13 8 12 11 -1 23 -5 27 -10 5 -4 2 -5 -6 0
-10 5 -12 4 -7 -4 4 -6 12 -9 17 -5 5 3 7 10 4 15 -4 5 0 9 9 9 8 0 17 6 19
12 4 10 6 10 6 1 1 -7 6 -13 11 -13 6 0 9 6 8 13 -2 7 9 13 25 15 15 2 25 8
21 13 -3 5 -2 9 3 8 23 -4 53 2 49 10 -10 15 25 22 42 9 11 -9 14 -9 9 -1 -5
8 2 13 20 15 17 2 32 12 40 28 7 14 13 18 13 10 0 -12 2 -13 9 -1 5 7 25 14
44 14 29 1 34 4 25 14 -8 10 -7 12 5 8 8 -4 18 -1 22 4 3 6 11 9 16 5 5 -3 8
0 7 7 -2 8 7 13 22 13 14 1 24 6 22 14 -2 11 16 17 46 13 6 -1 12 6 12 16 0
15 2 16 10 3 7 -12 10 -12 10 -1 0 7 6 11 15 8 8 -4 17 -2 20 3 4 6 0 10 -7
10 -8 0 -6 5 5 11 9 5 22 7 27 4 6 -3 13 1 16 9 4 10 18 16 36 16 19 0 28 4
26 12 -5 13 34 38 58 38 8 0 14 8 14 18 0 13 2 14 9 3 7 -11 10 -9 15 7 5 14
19 22 46 27 22 4 38 11 34 16 -3 5 0 9 6 9 6 0 8 4 5 10 -4 6 1 7 11 3 10 -4
15 -2 11 3 -3 6 4 11 16 11 12 1 28 10 35 20 7 10 16 17 20 17 4 -1 6 2 4 7
-1 5 2 9 8 9 5 0 10 -4 10 -10 0 -19 40 25 41 45 0 11 3 14 6 8 5 -15 24 -18
21 -4 -2 5 1 8 5 7 5 0 13 7 18 17 6 9 17 17 25 17 10 0 12 5 8 13 -6 9 -5 9
7 0 13 -11 18 -9 29 12 7 14 19 25 26 25 7 0 27 13 44 30 17 16 33 30 36 30 3
0 14 9 26 20 16 14 18 20 7 20 -11 0 -11 2 -1 9 8 4 24 7 38 5 13 -1 22 1 19
5 -2 4 0 21 5 37 8 28 8 28 10 4 l2 -25 7 25 c4 14 13 24 19 22 7 -1 13 8 13
20 1 17 2 19 6 6 7 -27 21 -21 18 7 -2 16 2 25 11 25 8 0 14 7 14 15 0 8 8 15
18 15 14 0 15 2 2 10 -14 9 -2 15 16 8 4 -2 11 7 15 20 6 15 13 21 21 16 8 -5
7 0 -2 11 -8 10 -10 16 -3 12 7 -4 14 1 18 13 4 11 10 18 15 15 11 -7 40 22
40 40 0 7 7 16 16 19 9 3 12 11 8 18 -5 8 -2 9 10 5 14 -5 17 -3 12 8 -4 10 1
15 14 15 13 0 18 5 14 15 -4 8 -1 15 5 15 6 0 17 11 23 25 8 19 14 22 20 13 5
-8 8 -2 9 17 0 26 2 27 9 10 8 -17 9 -18 11 -2 1 15 3 22 8 45 2 4 6 -2 11
-13 8 -18 9 -17 9 8 1 17 6 27 16 27 8 0 14 3 14 8 -1 4 -1 14 0 22 1 13 2 13
11 0 9 -15 11 -14 14 13 1 6 7 11 14 9 7 -1 12 2 12 8 0 14 37 50 53 51 6 0 3
4 -8 9 -17 7 -17 9 -2 9 9 1 17 6 17 12 0 5 5 7 10 4 6 -3 10 3 10 15 0 12 4
18 11 15 6 -4 13 2 16 14 3 11 9 19 13 16 4 -3 11 7 15 22 5 21 8 24 16 12 6
-10 9 -6 9 17 0 34 22 60 41 48 8 -4 9 -3 5 4 -4 7 -3 12 3 12 6 0 8 7 4 15
-3 10 0 15 8 13 8 -2 13 3 11 10 -1 6 6 12 15 13 12 0 14 2 5 6 -9 3 -3 12 18
25 22 13 30 24 26 35 -4 11 -2 14 9 9 12 -4 15 3 16 32 0 30 2 33 9 17 8 -18
9 -19 9 -1 1 12 6 16 16 12 8 -3 15 -1 15 4 0 6 -5 10 -11 10 -7 0 0 11 15 25
15 14 21 25 14 25 -8 1 -4 8 9 19 12 10 25 31 29 46 4 18 9 23 14 15 6 -9 10
-6 15 9 3 11 4 25 0 31 -3 6 1 7 9 4 11 -4 16 0 16 11 0 9 4 14 9 10 6 -3 13
11 17 30 4 22 16 42 30 52 13 8 24 24 24 34 0 11 5 19 10 19 6 0 10 7 10 16 0
9 5 12 13 8 8 -5 8 -2 -2 9 -12 15 -11 17 3 17 14 0 22 24 17 53 -1 5 3 6 9 2
5 -3 10 -1 10 5 0 7 7 9 17 6 15 -6 14 -4 -2 14 -16 18 -17 20 -2 14 10 -3 17
-1 17 6 0 6 4 9 9 5 5 -3 13 0 17 6 4 7 3 9 -4 5 -6 -3 -13 -2 -16 3 -4 5 2
12 11 14 17 4 17 5 0 6 -10 0 -15 6 -12 11 4 6 11 8 16 5 5 -4 9 0 9 8 0 8 7
17 15 21 8 3 15 17 15 31 0 18 4 24 13 19 7 -5 6 0 -3 11 -8 10 -10 16 -5 13
13 -8 39 7 41 22 1 5 2 20 3 33 2 21 3 21 11 2 8 -18 9 -17 9 8 1 17 6 27 16
27 9 0 15 9 15 25 0 14 -4 25 -10 25 -5 0 -10 4 -10 10 0 5 6 7 14 4 9 -3 13
1 13 13 -1 11 4 17 12 15 12 -3 12 -1 0 14 -9 12 -9 15 -1 10 7 -4 12 -2 12 4
0 6 5 8 11 4 8 -4 8 0 0 15 -9 17 -9 20 3 15 16 -6 16 11 2 35 -6 9 -5 12 1 8
14 -9 31 13 35 45 2 15 8 31 13 35 4 4 5 3 1 -4 -3 -6 -2 -14 3 -17 5 -4 7 6
5 23 -3 20 0 30 11 34 17 7 21 37 5 37 -5 0 -2 8 8 18 9 11 22 16 27 13 6 -2
3 4 -5 14 -8 10 -10 16 -3 12 8 -5 13 4 15 30 2 22 8 37 14 36 7 -1 11 3 11
10 0 7 1 21 2 32 1 17 3 18 11 5 7 -11 10 -6 11 23 1 20 2 45 2 55 1 9 7 21
14 25 7 4 13 13 13 20 0 7 -4 6 -10 -3 -8 -12 -10 -12 -10 -1 0 7 10 22 22 32
11 11 16 19 10 19 -7 0 -12 5 -12 11 0 5 6 7 13 3 9 -5 9 -4 0 6 -10 11 -9 17
4 32 11 13 16 32 14 57 -2 27 2 40 13 44 10 4 13 13 9 23 -4 11 -3 15 5 10 6
-3 14 -1 18 5 4 8 3 9 -4 5 -8 -5 -12 0 -12 13 0 10 6 22 13 24 9 4 9 8 -2 15
-9 6 -10 11 -2 13 6 2 12 34 14 75 2 85 21 90 25 7 4 -103 12 -68 12 55 0 79
-4 122 -11 122 -5 0 -8 -3 -6 -7 3 -5 1 -17 -4 -28 -6 -16 -8 -17 -8 -3 -1 9
-6 20 -13 24 -7 4 -8 3 -4 -4 4 -7 3 -12 -2 -12 -6 0 -9 -15 -8 -34 1 -19 -2
-32 -6 -30 -5 3 -8 0 -8 -6 0 -6 -4 -9 -9 -5 -5 3 -12 1 -16 -5 -3 -5 2 -10
12 -11 15 0 15 -2 -3 -11 -17 -8 -21 -17 -19 -44 2 -19 -1 -34 -6 -34 -5 0 -9
-9 -9 -21 0 -11 -4 -17 -10 -14 -5 3 -10 2 -10 -4 0 -5 6 -12 13 -14 6 -3 3
-6 -8 -7 l-20 -1 20 -9 c16 -7 17 -9 3 -9 -12 -1 -16 -10 -16 -32 1 -19 -6
-37 -16 -44 -13 -10 -14 -14 -4 -18 10 -4 10 -6 1 -6 -7 -1 -13 -8 -13 -16 0
-8 -5 -15 -11 -15 -5 0 -8 -4 -4 -9 3 -6 -3 -14 -12 -20 -10 -6 -12 -11 -5
-11 6 0 12 -5 12 -11 0 -5 -4 -7 -10 -4 -5 3 -10 -4 -10 -15 0 -16 -5 -20 -15
-16 -8 3 -14 2 -14 -2 5 -30 -3 -52 -18 -52 -15 0 -16 -2 -3 -10 12 -8 10 -10
-8 -10 -13 0 -20 4 -17 10 3 6 -1 10 -10 10 -9 0 -13 -4 -10 -10 9 -15 -14
-12 -28 3 -19 20 -19 37 -1 64 9 14 11 23 6 19 -6 -4 -10 2 -9 13 0 11 5 17
11 14 5 -4 7 0 4 8 -6 16 16 42 26 31 4 -3 3 5 -2 18 -9 25 -49 36 -44 12 1
-7 -10 -12 -30 -12 -25 0 -29 -3 -18 -10 10 -6 11 -10 2 -10 -6 0 -11 -3 -11
-7 4 -27 -3 -73 -10 -69 -5 3 -11 -1 -14 -8 -3 -8 -1 -17 6 -20 9 -3 9 -5 0
-5 -7 -1 -13 -12 -13 -25 0 -13 -6 -27 -13 -30 -9 -5 -9 -7 1 -12 18 -8 -31
-34 -64 -34 -17 0 -25 7 -30 25 -4 14 -11 22 -18 19 -6 -4 1 5 17 18 15 15 27
36 27 50 0 14 3 28 8 32 4 4 8 12 8 17 1 5 2 10 4 12 7 9 7 36 -1 31 -13 -8
-11 10 3 25 11 10 9 11 -5 5 -12 -4 -23 0 -33 12 -9 11 -12 13 -8 5 3 -7 0
-17 -7 -22 -8 -4 -14 -14 -15 -21 0 -7 -2 -23 -2 -35 -1 -13 -8 -23 -15 -23
-7 0 -13 -10 -14 -22 -1 -11 -8 -25 -15 -29 -10 -7 -10 -9 0 -9 6 0 12 -5 12
-11 0 -5 -4 -8 -9 -5 -5 3 -11 -1 -15 -9 -3 -8 -13 -15 -23 -15 -15 0 -16 2
-3 10 12 8 10 10 -8 10 -13 0 -20 -4 -17 -10 3 -5 -1 -10 -9 -10 -14 0 -20 12
-17 33 0 4 -3 7 -7 7 -4 0 -8 9 -9 20 -1 12 2 18 9 14 7 -5 9 2 6 20 -4 19 0
29 12 36 11 6 16 19 14 35 -1 18 2 25 10 22 7 -3 13 4 14 16 1 17 -1 19 -8 7
-8 -13 -10 -13 -10 2 0 9 4 18 10 20 5 1 11 22 12 45 2 23 8 41 13 40 6 -1 11
15 13 36 2 20 7 37 13 37 5 0 9 12 9 27 0 14 8 36 18 47 15 18 15 19 0 8 -15
-12 -17 -11 -15 7 0 11 4 18 8 15 11 -6 22 34 13 48 -5 7 -2 9 7 6 11 -4 15 2
16 21 2 23 1 24 -7 6 -7 -16 -9 -17 -9 -3 -1 9 4 20 9 23 6 3 10 11 10 16 0 6
-4 8 -8 5 -11 -7 -8 31 3 41 4 5 5 2 0 -6 -6 -10 -4 -12 4 -7 9 6 9 11 0 22
-9 11 -9 14 1 14 8 0 10 3 7 7 -4 3 1 12 11 20 9 7 13 13 7 12 -24 -3 -27 2
-9 16 16 13 17 16 4 25 -10 6 -11 10 -2 10 6 0 12 5 12 11 0 5 -4 7 -10 4 -5
-3 -10 -1 -10 4 0 6 8 11 18 12 9 0 12 3 5 5 -13 6 -6 35 11 46 8 6 8 8 0 8
-6 0 -11 7 -11 15 0 8 4 12 9 9 5 -3 6 7 2 22 -5 18 -3 25 4 20 7 -4 8 3 2 24
-6 21 -5 30 3 30 7 0 6 4 -3 10 -11 7 -11 10 -2 10 10 0 10 5 1 21 -6 12 -7
19 -2 16 5 -4 10 0 10 8 0 8 -4 12 -8 9 -4 -2 -10 0 -14 6 -3 5 0 10 7 11 7 0
4 4 -7 9 -31 13 -39 11 -24 -7 10 -11 10 -14 2 -9 -14 8 -15 5 -17 -69 0 -27
-4 -55 -8 -61 -10 -16 -94 -13 -91 3 2 7 4 33 5 58 0 25 4 41 8 35 5 -8 9 -7
13 4 3 8 1 16 -5 18 -6 2 -12 12 -14 21 -1 9 2 15 7 11 5 -3 6 -11 3 -17 -4
-7 -3 -8 2 -4 14 13 11 30 -6 45 -11 10 -11 11 -1 6 11 -5 13 -3 8 10 -4 9 -3
15 2 12 11 -7 9 95 -3 113 -6 10 -6 12 3 7 8 -5 11 6 10 41 -3 106 1 194 9
189 5 -3 9 1 9 9 0 8 -4 12 -8 10 -4 -3 -10 2 -13 11 -4 11 -2 15 7 11 7 -3
13 3 14 13 1 10 -5 21 -13 24 -7 3 -11 12 -8 21 3 8 2 15 -2 16 -5 0 -19 2
-30 5 -13 2 -28 -4 -35 -13 -8 -9 -9 -14 -3 -10 7 4 14 -2 17 -14 4 -15 2 -19
-9 -15 -9 4 -14 -2 -14 -17 0 -18 2 -19 10 -7 8 12 10 11 10 -7 0 -14 -5 -21
-13 -17 -9 3 -12 -8 -10 -48 2 -34 -1 -54 -9 -60 -10 -6 -10 -8 1 -8 11 0 11
-3 1 -15 -7 -8 -8 -15 -3 -15 5 0 9 -9 10 -20 1 -11 -2 -18 -6 -16 -4 3 -8 -1
-8 -9 0 -8 5 -15 11 -15 6 0 4 -5 -4 -10 -8 -5 -10 -10 -4 -10 6 0 11 -7 11
-15 0 -8 -4 -12 -8 -10 -4 3 -10 -2 -13 -11 -3 -8 -2 -13 3 -10 5 3 11 -1 14
-9 4 -8 1 -12 -6 -9 -8 3 -13 -5 -14 -18 -2 -17 0 -19 6 -9 7 10 9 7 8 -12 -1
-14 -5 -23 -9 -20 -5 2 -8 -3 -8 -12 0 -9 4 -14 9 -11 5 4 4 -5 -2 -18 -7 -13
-16 -22 -22 -18 -5 3 -3 -2 5 -12 13 -16 12 -20 -5 -32 -14 -10 -15 -14 -4
-14 12 0 12 -2 -1 -10 -13 -9 -13 -10 0 -10 13 0 13 -1 0 -10 -12 -7 -12 -14
-4 -27 13 -22 7 -46 -9 -36 -7 4 -7 0 1 -9 11 -14 10 -18 -5 -27 -10 -6 -12
-11 -5 -11 6 0 12 -5 12 -11 0 -5 -6 -7 -12 -3 -8 5 -7 0 2 -11 9 -11 10 -16
3 -11 -17 10 -17 -26 -1 -43 11 -10 9 -11 -6 -5 -16 6 -18 4 -13 -9 3 -9 2
-17 -2 -17 -5 0 -11 6 -14 13 -2 6 -4 -1 -4 -18 0 -16 2 -24 4 -17 8 20 22 14
16 -8 -3 -11 -9 -17 -14 -14 -5 3 -9 1 -9 -5 0 -5 5 -13 10 -16 6 -3 10 -12
10 -18 0 -7 -4 -6 -10 3 -7 11 -10 5 -10 -24 0 -25 -6 -44 -17 -53 -15 -12
-15 -14 -2 -10 9 3 16 -1 16 -9 0 -7 -4 -11 -9 -8 -7 5 -13 -18 -9 -39 1 -4
-6 -10 -14 -13 -11 -4 -15 -21 -15 -55 0 -27 -4 -49 -10 -49 -5 0 -10 -5 -10
-11 0 -5 6 -7 13 -4 6 4 4 0 -5 -8 -20 -16 -25 -32 -6 -21 7 5 8 3 4 -5 -5 -7
-14 -10 -22 -7 -8 3 -14 1 -14 -4 0 -6 5 -10 10 -10 6 0 10 -10 9 -22 0 -22
-1 -22 -8 -3 -7 17 -8 17 -13 -7 -3 -15 -2 -25 3 -23 4 3 2 -8 -4 -25 -6 -16
-15 -30 -19 -30 -4 0 -8 -9 -8 -21 0 -16 -4 -20 -17 -15 -16 5 -16 5 -2 -6 15
-13 15 -43 0 -34 -4 3 -8 -1 -8 -9 0 -8 5 -15 10 -15 6 0 -2 -11 -16 -24 -14
-13 -23 -27 -20 -30 4 -3 -2 -13 -13 -22 -10 -8 -13 -13 -6 -9 6 3 12 2 12 -4
0 -5 -4 -11 -9 -13 -5 -1 -11 -12 -13 -23 -1 -11 -6 -22 -10 -25 -6 -5 -18
-50 -20 -78 -1 -6 -3 -10 -6 -8 -2 3 -10 -1 -17 -7 -9 -8 -10 -16 -3 -24 8
-10 6 -13 -6 -13 -9 0 -16 -6 -16 -14 0 -8 -6 -17 -12 -19 -10 -4 -10 -6 0 -6
6 -1 12 -9 11 -18 0 -11 -3 -13 -6 -5 -2 6 -9 12 -15 12 -6 0 -8 -7 -4 -15 3
-9 0 -15 -9 -15 -8 0 -15 -9 -15 -20 0 -14 -5 -18 -17 -13 -17 5 -17 5 -2 -8
12 -10 14 -20 9 -34 -6 -13 -9 -15 -9 -5 -1 8 -9 -1 -19 -20 -10 -19 -24 -34
-32 -32 -11 3 -11 0 1 -14 8 -10 9 -15 2 -11 -7 4 -14 -1 -18 -13 -3 -11 -11
-20 -16 -20 -5 0 -9 -12 -9 -27 0 -22 -2 -25 -10 -13 -7 10 -10 11 -11 3 -4
-34 -6 -38 -17 -35 -7 1 -12 -5 -12 -13 0 -8 -6 -15 -12 -15 -9 0 -8 -4 2 -10
13 -8 12 -10 -2 -10 -10 0 -18 -8 -18 -17 0 -14 -2 -15 -9 -5 -7 11 -10 10
-15 -3 -8 -23 -8 -27 3 -20 5 3 13 0 17 -6 4 -7 3 -10 -2 -7 -14 9 -56 -11
-49 -22 3 -5 1 -10 -5 -10 -17 0 -45 -30 -28 -30 8 0 7 -4 -4 -11 -10 -5 -18
-17 -18 -24 0 -8 -3 -14 -7 -14 -20 3 -43 -2 -42 -8 4 -24 -3 -43 -13 -41 -7
2 -12 -3 -10 -11 2 -9 -3 -11 -13 -7 -12 4 -15 1 -13 -12 4 -17 -26 -52 -46
-52 -6 0 -4 -5 4 -10 13 -8 12 -10 -2 -10 -11 0 -18 -8 -18 -19 0 -15 -5 -18
-22 -14 -17 3 -19 2 -9 -5 11 -8 10 -11 -4 -19 -9 -5 -16 -13 -16 -16 3 -24
-2 -28 -9 -7 l-8 25 -2 -27 c-1 -16 -3 -34 -4 -40 0 -7 -8 -13 -16 -13 -8 -1
-14 -7 -12 -14 1 -7 -2 -10 -8 -6 -5 3 -10 1 -10 -5 0 -6 -4 -9 -9 -6 -5 3
-14 -8 -20 -24 -5 -17 -13 -30 -16 -30 -3 0 -3 5 1 12 4 7 3 8 -4 4 -7 -4 -12
-14 -12 -22 0 -8 -8 -14 -17 -14 -15 0 -16 -2 -3 -10 13 -8 13 -10 -1 -10 -9
0 -35 -21 -57 -46 -23 -25 -42 -42 -43 -37 0 4 -4 -2 -10 -15 -5 -14 -13 -20
-20 -16 -8 4 -9 3 -5 -5 4 -7 -2 -15 -16 -20 -13 -4 -23 -12 -23 -17 1 -14
-28 -43 -37 -38 -4 3 -8 -7 -9 -23 0 -15 -3 -22 -6 -15 -6 16 -24 16 -21 0 3
-11 -1 -13 -34 -17 -9 -1 -8 -4 2 -11 15 -10 -34 -15 -100 -11 -20 2 -22 0
-10 -8 13 -9 12 -11 -5 -12 -11 -1 -23 -1 -27 0 -5 0 -8 -8 -8 -20 0 -11 -4
-18 -9 -15 -5 4 -12 0 -14 -6 -4 -10 -6 -10 -6 0 -1 17 -21 15 -21 -2 0 -8 -5
-18 -12 -22 -8 -5 -9 -2 -5 10 4 11 3 15 -4 10 -6 -3 -8 -15 -6 -25 4 -14 1
-19 -11 -17 -10 2 -16 -3 -14 -11 3 -12 1 -12 -14 0 -10 8 -15 9 -11 2 4 -7
-1 -14 -13 -18 -11 -3 -20 -15 -20 -25 0 -23 -16 -35 -26 -19 -4 8 -3 9 4 5 7
-4 12 -3 12 2 0 5 -12 10 -26 10 -19 0 -22 -3 -13 -9 11 -7 9 -10 -8 -15 -13
-4 -23 -13 -23 -21 0 -8 -3 -12 -7 -10 -10 5 -43 -30 -35 -37 3 -3 0 -6 -5 -6
-6 0 -14 6 -16 13 -3 7 -6 5 -6 -5 -1 -11 -9 -18 -21 -18 -11 0 -20 -5 -20
-11 0 -5 5 -7 10 -4 16 10 11 -1 -7 -16 -11 -10 -14 -10 -9 -2 4 7 2 13 -3 13
-6 0 -11 -7 -11 -15 0 -8 -5 -15 -11 -15 -5 0 -8 4 -5 9 4 5 -5 4 -18 -2 -16
-8 -21 -14 -13 -19 9 -6 9 -8 0 -9 -7 -1 -17 -3 -23 -4 -5 -1 -13 -3 -17 -4
-5 -1 -1 -6 7 -11 12 -8 11 -10 -7 -10 -13 0 -23 -6 -23 -12 0 -9 -4 -8 -10 2
-9 14 -15 7 -11 -14 1 -5 -5 -6 -14 -3 -8 4 -15 2 -15 -3 0 -6 6 -10 13 -11 6
0 -3 -5 -21 -10 -22 -7 -30 -14 -25 -22 4 -7 -2 -5 -12 3 -11 9 -16 10 -11 3
4 -8 2 -13 -8 -13 -8 0 -17 -6 -19 -12 -4 -10 -6 -9 -6 1 -1 9 -12 2 -30 -17
-19 -19 -32 -26 -35 -19 -3 8 -5 8 -5 -1 -1 -7 -6 -10 -12 -7 -6 4 -13 -3 -16
-16 -6 -22 -7 -22 -14 -3 -7 17 -8 17 -8 1 -1 -10 -5 -16 -10 -13 -5 3 -12 -2
-15 -11 -6 -15 -8 -15 -16 -3 -7 10 -10 11 -10 3 0 -7 -5 -13 -11 -13 -6 0
-17 -7 -26 -15 -8 -8 -18 -13 -23 -10 -4 3 -10 -2 -14 -10 -3 -8 -15 -15 -26
-15 -14 0 -19 -4 -14 -12 5 -8 0 -7 -11 2 -10 8 -16 10 -12 3 5 -8 -7 -15 -35
-21 -24 -6 -35 -10 -25 -11 10 -1 16 -5 12 -11 -3 -5 -12 -7 -20 -3 -8 3 -15
0 -15 -6 0 -9 -5 -9 -20 -1 -16 9 -18 8 -14 -5 4 -10 2 -15 -7 -13 -8 2 -13
-3 -11 -11 3 -12 1 -12 -14 0 -12 9 -15 9 -10 2 5 -9 0 -13 -16 -13 -36 0 -68
-11 -62 -21 3 -5 -2 -9 -11 -9 -10 0 -15 -6 -12 -13 3 -8 -11 -13 -47 -15 -28
-1 -55 -8 -61 -15 -5 -6 -19 -13 -30 -15 -11 -1 -28 -3 -37 -4 -9 -1 -14 -6
-12 -10 4 -7 -12 -10 -41 -8 -3 1 -13 -6 -21 -15 -9 -8 -27 -15 -40 -15 -14 0
-31 -6 -39 -13 -7 -7 -27 -12 -44 -11 -23 1 -31 -2 -32 -14 0 -15 -1 -15 -7 0
-5 13 -11 15 -22 8 -12 -8 -12 -10 -1 -10 8 0 12 -3 9 -6 -4 -3 -17 0 -30 7
-12 6 -20 8 -16 4 15 -16 -13 -35 -33 -24 -15 7 -21 6 -25 -6 -3 -8 -10 -15
-16 -15 -5 0 -6 6 -2 13 5 8 2 8 -9 -2 -11 -9 -17 -10 -17 -2 0 6 -5 11 -11
11 -5 0 -8 -4 -5 -8 2 -4 1 -14 -5 -22 -6 -10 -9 -11 -9 -2 0 6 -9 12 -21 12
-11 0 -17 -5 -14 -10 6 -10 1 -11 -47 -13 -13 -1 -29 -8 -36 -17 -8 -8 -11 -9
-7 -3 4 9 -2 13 -20 13 -14 0 -24 -4 -21 -8 2 -4 -7 -9 -22 -10 -20 -1 -23 1
-12 8 12 7 10 9 -7 7 -12 0 -19 -5 -17 -9 3 -4 -8 -8 -25 -8 -16 0 -31 -6 -34
-12 -2 -7 -19 -13 -38 -14 -19 0 -71 -1 -117 -2 -46 -1 -81 -6 -78 -10 2 -4
-5 -9 -17 -9 -12 -1 -25 3 -29 10 -6 9 -8 9 -8 0 0 -8 -13 -13 -30 -13 -16 0
-30 5 -30 10 0 6 -5 10 -10 10 -6 0 -9 -6 -8 -13 2 -7 -6 -11 -20 -9 -13 2
-31 -2 -40 -10 -8 -7 -13 -8 -9 -2 4 8 -9 11 -43 11 -30 0 -50 -4 -50 -11 0
-7 -3 -7 -8 -1 -4 6 -18 12 -32 13 -22 4 -23 2 -10 -15 13 -16 13 -17 -1 -6
-9 7 -20 9 -24 5 -5 -4 -6 -2 -3 3 4 6 -22 10 -68 11 -66 1 -73 -1 -62 -15 12
-15 11 -15 -7 0 -11 8 -33 16 -49 17 -17 1 -33 7 -37 13 -4 7 -8 5 -12 -4 -4
-10 -13 -13 -27 -10 -16 4 -18 8 -8 14 9 6 6 8 -9 6 -12 0 -19 -5 -17 -9 3 -4
-7 -8 -23 -7 -25 0 -26 1 -8 9 19 8 19 9 -2 9 -13 1 -23 -3 -23 -9 0 -13 -27
-13 -32 -1 -1 5 -47 11 -100 12 -90 3 -117 10 -85 22 9 4 9 6 -1 6 -7 1 -15
-6 -18 -14 -4 -8 -10 -12 -15 -9 -5 3 -7 8 -5 12 2 4 -10 7 -27 8 -77 2 -135
10 -130 16 4 7 -6 9 -60 12 -10 1 -22 8 -27 16 -8 13 -10 13 -10 -2 0 -17 -23
-19 -37 -3 -4 4 -3 5 4 1 6 -3 14 -3 17 2 8 13 -28 11 -36 -2 -5 -7 -8 -4 -8
6 0 12 -5 15 -16 11 -9 -3 -19 -1 -23 5 -4 7 -25 14 -46 17 -28 3 -35 2 -25
-5 20 -13 4 -13 -21 1 -11 5 -17 13 -15 17 3 5 -5 9 -17 9 -17 2 -18 0 -7 -7
12 -7 10 -9 -7 -8 -11 1 -19 7 -16 13 2 7 -10 12 -34 13 -21 1 -39 6 -41 12
-2 5 -13 10 -23 10 -14 0 -18 4 -13 13 5 8 2 7 -9 -2 -15 -12 -20 -11 -39 5
-12 11 -19 14 -15 9 3 -6 -4 -11 -16 -12 -12 0 -16 1 -9 4 19 7 -31 32 -81 40
-33 5 -37 8 -22 14 14 5 9 7 -18 7 -22 -1 -42 4 -45 9 -4 6 -25 15 -47 19 -32
6 -36 9 -20 15 26 10 20 11 -68 18 -10 0 -15 6 -12 11 3 6 -5 10 -18 10 -14 0
-28 7 -31 16 -4 9 -13 14 -21 10 -8 -3 -22 -3 -31 1 -13 5 -13 7 -2 14 9 6 7
9 -9 9 -12 0 -28 7 -37 15 -8 8 -24 15 -35 15 -13 0 -21 7 -22 18 0 15 -1 15
-8 -2 -7 -18 -8 -18 -14 -2 -4 9 -11 15 -16 12 -5 -3 -11 3 -14 14 -4 14 -10
18 -22 13 -11 -4 -21 0 -27 10 -5 10 -18 17 -28 17 -11 0 -20 6 -20 14 0 9 -7
12 -20 9 -13 -3 -20 0 -20 8 0 11 -2 11 -10 -1 -7 -12 -10 -8 -11 15 0 17 -3
25 -5 18 -3 -7 -12 -9 -20 -6 -7 3 -11 10 -7 17 4 6 -2 4 -12 -4 -11 -9 -16
-10 -11 -3 4 8 2 13 -7 13 -8 0 -18 7 -21 16 -3 9 -11 12 -18 8 -7 -5 -9 -2
-6 8 4 8 0 15 -8 16 -8 1 -21 3 -28 4 -8 1 -14 6 -13 12 1 6 -4 10 -10 8 -17
-3 -17 15 0 21 6 2 -3 4 -20 5 -38 1 -56 9 -48 23 6 9 -15 13 -44 10 -7 -2
-10 3 -6 9 4 7 -2 14 -14 17 -11 3 -18 9 -15 14 3 5 0 9 -5 9 -6 0 -20 9 -31
20 -12 12 -26 18 -33 13 -8 -5 -8 -2 1 9 11 14 10 16 -12 14 -17 -2 -26 2 -26
10 0 8 -12 17 -27 20 -25 7 -25 8 -8 15 18 7 17 8 -5 8 -14 1 -36 13 -49 26
-13 14 -28 25 -33 25 -6 0 -7 7 -4 16 3 8 2 13 -3 10 -10 -6 -55 33 -64 55 -4
10 -6 9 -6 -5 -1 -16 -4 -15 -21 7 -11 14 -20 29 -20 34 0 5 -9 16 -20 26 -12
10 -20 12 -20 5 0 -17 -11 -3 -14 19 -2 12 -13 19 -32 22 -26 3 -27 4 -9 11
17 7 17 9 3 9 -10 1 -18 6 -18 12 0 5 -4 7 -10 4 -5 -3 -11 -1 -11 4 -1 6 -2
15 -3 20 0 5 -5 13 -10 18 -5 4 -6 3 -2 -4 3 -6 2 -14 -4 -18 -5 -3 -10 1 -10
9 0 9 -4 16 -9 16 -5 0 -12 12 -16 28 -7 25 -8 25 -15 7 l-9 -20 -1 20 c-2 11
-2 23 -2 26 1 4 -9 10 -22 13 -12 3 -28 17 -34 31 -7 15 -20 25 -32 25 -15 0
-20 7 -20 25 0 17 -6 25 -17 25 -15 0 -16 2 -3 10 10 6 11 10 3 10 -7 0 -13 8
-14 18 0 11 -2 13 -6 4 -3 -9 -12 -2 -25 19 -15 25 -22 29 -29 18 -7 -11 -9
-9 -9 9 0 12 0 25 -1 30 0 4 -9 10 -20 14 -13 5 -17 12 -13 20 5 8 0 7 -11 -2
-17 -14 -18 -14 -6 9 8 15 9 21 2 17 -6 -4 -11 -2 -11 3 0 6 -8 11 -17 12 -15
0 -15 2 2 9 l20 9 -20 1 c-11 2 -24 2 -29 1 -5 -1 -3 6 5 15 9 12 9 15 2 10
-12 -6 -18 5 -14 27 0 4 -6 7 -14 7 -8 0 -15 6 -15 13 0 8 -4 7 -10 -3 -10
-16 -10 -17 -14 37 -1 20 -30 53 -46 53 -6 0 -10 6 -9 13 4 30 -2 48 -13 41
-8 -5 -9 -2 -5 9 3 9 3 16 -1 16 -28 -4 -34 1 -21 18 10 11 10 14 1 9 -8 -5
-12 -1 -13 11 0 10 -3 13 -6 6 -2 -7 -8 -13 -12 -13 -12 0 -10 33 3 49 8 11 8
13 -1 7 -7 -4 -13 -2 -13 4 0 6 -11 15 -25 20 -21 8 -34 39 -23 53 5 6 -37 45
-44 41 -4 -3 -8 0 -8 5 0 6 5 11 10 11 6 0 10 5 10 11 0 5 -4 8 -9 5 -4 -3
-16 3 -25 13 -13 14 -14 21 -5 27 7 4 10 3 5 -4 -3 -6 -2 -13 3 -16 5 -4 8 2
6 11 -1 10 -8 17 -14 15 -6 -1 -11 9 -11 23 0 15 -8 29 -21 36 -17 9 -19 13
-8 20 11 7 10 9 -3 9 -11 0 -18 8 -18 21 0 13 -4 18 -13 13 -6 -4 -9 -4 -5 1
4 4 2 15 -5 23 -10 13 -9 14 1 8 11 -7 11 -4 0 15 -7 13 -19 28 -26 34 -8 6
-13 18 -12 26 1 7 2 23 0 34 l-1 20 -9 -20 c-7 -16 -9 -13 -9 17 -1 23 -7 40
-17 46 -10 6 -16 22 -16 45 0 26 -6 41 -24 54 -15 11 -24 28 -24 46 0 18 -4
26 -11 21 -7 -4 -7 1 1 16 10 18 9 22 -9 27 -12 3 -17 11 -14 19 3 8 0 14 -7
14 -10 0 -9 4 0 16 11 12 11 15 0 12 -9 -2 -15 10 -17 37 -3 22 -9 42 -14 43
-5 2 -9 15 -9 28 0 14 -4 22 -10 19 -5 -3 -11 0 -12 7 -4 43 -6 57 -7 93 -2
32 -4 36 -11 20 -8 -17 -9 -18 -11 -2 -1 9 -2 23 -3 30 -1 6 -8 11 -16 9 -11
-2 -11 1 2 11 10 8 13 18 8 26 -6 11 -9 11 -13 0 -3 -9 -6 -10 -6 -2 -1 6 4
15 9 18 6 3 10 12 10 18 0 7 -4 6 -10 -3 -7 -11 -10 -8 -10 16 0 16 -6 36 -13
43 -10 10 -9 11 6 5 13 -5 16 -2 11 10 -3 9 -11 13 -18 9 -6 -4 -5 1 3 10 12
15 12 19 -4 31 -10 7 -15 19 -13 27 3 8 -2 23 -11 33 -9 11 -10 16 -3 12 8 -5
12 0 12 16 0 18 -2 20 -10 8 -10 -15 -12 4 -12 80 0 14 -4 27 -9 30 -5 3 -2
18 6 33 8 15 10 25 5 22 -6 -4 -10 1 -10 9 0 9 -4 16 -10 16 -6 0 -10 28 -10
63 0 44 -3 58 -10 47 -8 -13 -10 -12 -10 3 0 9 5 17 10 17 6 0 10 7 10 15 0 8
-4 15 -10 15 -14 0 -12 27 3 33 9 4 9 6 0 6 -7 1 -13 8 -13 17 0 8 4 13 9 10
14 -9 7 20 -9 40 -14 16 -13 17 5 11 17 -6 18 -5 5 5 -17 15 -24 162 -7 151 6
-3 7 -1 3 6 -14 21 -18 63 -5 56 8 -5 8 -2 1 11 -11 22 -10 83 2 103 6 9 5 12
-1 8 -13 -8 -10 143 2 163 5 8 4 11 -3 6 -7 -4 -9 3 -7 21 2 16 4 45 4 66 1
21 5 36 9 33 5 -3 9 1 9 9 0 8 -4 12 -9 9 -4 -3 -8 4 -8 15 0 12 6 21 13 21 8
0 7 4 -3 10 -10 6 -11 10 -2 10 6 0 12 5 12 11 0 5 -4 7 -10 4 -5 -3 -10 -1
-10 4 0 6 5 11 10 11 6 0 10 27 10 61 0 37 4 58 10 54 7 -4 7 3 0 20 -7 19 -7
24 1 19 8 -4 9 1 4 16 -4 12 -3 20 2 17 4 -3 9 18 9 46 1 29 3 68 4 87 l3 35
7 -35 7 -35 2 36 c0 19 -5 41 -11 48 -10 11 -10 13 0 7 11 -6 18 18 13 47 -1
4 6 10 14 13 8 4 15 10 15 16 0 5 -4 7 -8 4 -5 -3 -9 1 -9 9 0 8 4 12 9 9 4
-3 8 9 8 25 0 17 5 31 10 31 6 0 10 5 10 11 0 5 -5 7 -10 4 -5 -3 -10 1 -10
10 0 9 5 13 10 10 6 -3 10 2 11 12 1 32 8 59 23 87 8 16 12 35 9 44 -5 11 -3
13 7 7 10 -6 11 -4 4 6 -4 8 -10 23 -11 34 -2 16 -1 17 6 5 5 -8 7 -19 4 -25
-4 -5 -2 -6 3 -2 5 5 9 14 10 20 0 7 2 26 3 42 2 26 3 27 11 10 7 -17 9 -15
11 13 1 17 2 40 3 50 0 11 7 26 15 36 12 15 12 16 -5 9 -11 -4 -5 7 16 26 19
19 29 31 23 27 -17 -9 -17 6 0 23 10 11 9 14 -1 18 -8 3 -6 10 8 21 11 10 23
31 26 47 3 17 9 32 15 33 5 2 9 9 9 15 0 6 7 19 17 29 9 10 11 18 5 18 -6 0
-13 -6 -15 -12 -4 -10 -6 -10 -6 0 -1 7 6 15 14 18 9 4 15 19 16 38 0 26 2 28
9 11 7 -17 9 -15 9 13 1 17 5 32 11 32 5 0 6 7 3 17 -4 11 -3 14 5 9 11 -6 17
12 13 36 0 5 4 7 10 5 6 -1 14 4 16 11 3 6 0 12 -7 12 -13 0 19 35 40 43 12 4
11 6 -3 6 -15 1 -16 3 -5 15 7 8 16 12 21 9 4 -2 7 5 7 16 0 10 -5 21 -10 23
-6 2 -1 9 11 16 17 11 20 11 13 0 -4 -8 -3 -10 2 -5 10 9 11 13 13 50 1 18 3
19 11 7 8 -13 10 -13 11 3 3 37 5 42 17 40 7 -2 12 9 12 26 0 17 5 33 12 37 7
4 8 3 4 -4 -15 -24 2 -11 19 14 11 18 13 24 4 19 -8 -5 -2 3 13 18 16 14 28
31 28 37 0 6 5 8 12 4 7 -5 8 -3 4 5 -5 7 0 18 10 26 18 13 18 14 -4 10 -12
-2 -20 0 -17 6 4 5 15 9 26 9 12 0 19 7 19 19 0 11 5 23 12 27 7 5 8 2 3 -7
-5 -8 -4 -11 1 -6 5 5 9 14 9 20 1 7 7 11 15 9 11 -3 11 0 0 13 -7 8 -10 18
-6 22 3 3 6 0 6 -7 0 -14 14 -5 16 11 4 30 6 32 14 14 7 -17 9 -15 9 13 1 17
6 32 12 32 5 0 7 -6 3 -12 -4 -8 -3 -10 2 -5 9 9 10 13 13 42 0 8 7 14 14 12
6 -1 11 4 10 10 -2 7 0 12 5 12 21 -4 31 3 26 16 -4 8 -1 15 6 15 6 0 8 5 4
12 -4 7 -3 8 4 4 6 -4 19 6 29 21 10 15 20 30 24 33 3 3 9 15 13 28 4 12 12
20 17 17 5 -4 9 6 10 22 l1 28 8 -25 c4 -14 8 -19 9 -12 1 6 10 21 21 32 12
12 18 25 15 30 -3 4 7 13 22 18 16 6 23 11 16 11 -15 1 42 61 58 61 6 0 9 7 5
15 -3 8 0 15 6 15 6 0 28 18 49 40 23 24 39 35 42 27 3 -7 6 0 6 16 1 16 7 27
15 27 8 0 17 7 20 16 3 8 10 12 16 9 5 -3 10 1 10 9 0 14 19 21 43 17 5 -1 6
3 2 8 -3 6 3 19 15 31 11 11 20 26 21 33 0 6 4 3 9 -8 7 -17 9 -17 9 -2 1 9 8
17 16 17 8 0 15 7 15 16 0 8 3 13 8 11 4 -3 16 -1 27 4 l20 8 -20 0 c-18 1
-17 3 5 16 14 8 32 17 40 21 8 4 19 14 23 21 5 7 12 11 18 8 5 -4 9 1 9 9 0
14 12 20 32 17 4 0 12 8 18 19 6 11 7 20 3 20 -4 0 0 5 10 11 9 5 22 7 27 4 6
-3 13 1 16 9 3 9 12 16 19 16 7 0 15 7 19 15 3 8 16 15 28 15 19 0 20 2 8 10
-12 8 -11 10 8 10 13 0 22 6 22 15 0 8 6 15 14 15 8 0 17 6 19 13 4 10 6 10 6
0 1 -7 6 -13 12 -13 5 0 7 5 4 10 -3 6 5 14 19 20 14 5 26 14 26 21 0 6 6 9
13 6 6 -2 20 9 29 25 10 15 23 28 30 28 6 0 3 -7 -8 -16 -13 -11 -9 -10 15 3
18 10 35 23 38 30 2 6 13 10 24 8 10 -2 19 2 19 8 0 7 15 19 33 27 17 8 31 21
29 28 -3 16 15 16 21 0 4 -10 6 -10 6 0 1 6 8 12 17 12 11 0 14 6 10 18 -5 14
-4 14 9 -2 15 -20 15 -20 16 0 1 10 1 23 0 28 -1 5 4 5 11 -1 21 -18 28 -16
58 12 16 15 39 28 53 29 21 1 23 4 14 15 -10 12 -9 13 1 7 8 -5 19 -1 28 10 9
11 13 13 9 4 -4 -8 1 -6 9 4 12 15 16 16 16 5 1 -8 7 -3 15 11 8 14 14 19 15
13 0 -7 8 -13 18 -13 14 0 15 2 2 10 -13 8 -12 10 3 10 9 0 17 8 18 18 0 14 2
14 9 -3 7 -17 9 -17 9 -2 1 11 9 17 26 17 14 0 25 5 25 10 0 6 7 10 16 10 10
0 14 6 10 15 -3 8 -1 15 4 15 6 0 10 -7 10 -16 0 -8 5 -12 10 -9 6 4 8 11 5
16 -4 5 3 9 15 9 12 0 18 5 15 10 -3 6 -1 10 4 10 6 0 11 -4 11 -10 0 -5 5
-10 10 -10 6 0 10 6 10 14 0 9 7 13 19 11 11 -2 22 2 24 9 3 7 15 16 26 19 14
3 19 1 16 -6 -3 -7 2 -2 11 11 18 24 39 29 48 10 4 -7 4 -3 2 9 -2 12 -1 22 3
21 3 0 8 1 11 2 19 7 39 7 34 -1 -3 -5 -9 -7 -14 -4 -5 3 -11 1 -15 -5 -9 -15
21 -12 37 3 7 7 22 13 33 13 67 3 80 5 60 13 -15 6 -11 9 23 14 23 4 42 12 42
17 0 6 19 10 42 10 24 0 49 7 59 16 13 12 19 12 25 3 4 -7 3 -10 -4 -5 -6 3
-13 2 -17 -4 -3 -5 1 -10 10 -10 8 0 18 7 22 16 3 8 12 13 20 10 8 -3 11 -2 8
3 -3 5 -1 12 5 16 5 3 10 1 10 -4 0 -6 10 -11 23 -10 21 0 21 1 2 9 -18 8 -17
9 8 9 19 1 26 -3 22 -11 -4 -7 -1 -6 7 2 8 10 29 15 53 15 45 -1 67 4 61 14
-3 4 7 8 22 9 14 1 29 8 34 15 6 9 8 9 8 0 0 -7 9 -13 21 -13 13 0 18 4 13 13
-5 7 0 6 11 -3 11 -9 16 -10 11 -2 -5 9 8 12 53 13 54 1 99 4 132 8 5 0 8 5 5
9 -3 5 1 9 9 9 8 0 11 -5 8 -11 -3 -6 -3 -8 2 -4 4 4 16 3 26 -2 12 -7 20 -6
25 2 5 7 3 8 -7 3 -8 -5 -10 -4 -6 0 14 16 36 14 31 -3 -3 -10 1 -7 7 5 11 21
13 21 24 6 9 -13 14 -13 20 -3 6 9 4 11 -5 5 -8 -5 -11 -4 -6 3 7 12 37 5 48
-12 5 -7 8 -6 8 3 0 11 3 11 16 1 12 -11 15 -11 12 0 -2 7 3 15 11 18 8 2 11
0 8 -5 -4 -6 4 -8 18 -5 14 2 22 8 19 13 -3 5 2 6 10 3 9 -3 16 -10 16 -15 0
-8 22 -7 88 5 22 4 32 2 32 -6 0 -10 2 -10 9 1 6 9 10 10 16 2 5 -9 11 -9 22
1 19 15 23 15 34 -4 7 -10 9 -10 9 0 0 7 5 10 10 7 6 -4 7 -12 3 -18 -4 -7 0
-7 10 1 9 8 21 10 28 7 17 -11 70 -14 63 -4 -2 5 11 8 31 7 20 -1 31 -5 24 -9
-7 -4 -19 -5 -28 -2 -12 3 -11 1 2 -7 14 -9 23 -8 42 4 23 15 24 15 18 -1 -5
-15 -3 -16 7 -6 11 10 16 9 27 -5 12 -16 12 -15 6 3 -6 18 -5 18 10 6 10 -8
20 -11 24 -8 3 4 12 2 20 -4 9 -8 13 -8 13 -1 0 13 49 5 69 -11 12 -9 13 -9 7
1 -4 7 -1 12 9 12 9 0 14 -4 11 -8 -8 -13 65 -14 80 -1 10 9 12 6 9 -11 -4
-19 -2 -20 11 -9 14 11 19 10 31 -6 13 -17 15 -17 10 -2 -8 22 16 23 37 1 12
-12 16 -12 16 -2 0 11 2 11 9 0 4 -8 11 -13 15 -13 37 5 66 -1 60 -11 -6 -10
-4 -10 7 0 16 14 33 16 24 2 -3 -5 -1 -10 4 -10 6 0 11 5 11 11 0 8 5 7 16 -1
8 -8 27 -15 42 -16 15 -2 28 -8 30 -14 2 -5 26 -10 54 -10 40 0 59 -6 87 -27
24 -18 31 -21 21 -8 -15 19 -14 19 13 2 19 -13 27 -14 27 -5 0 10 2 10 9 0 4
-7 24 -14 44 -15 25 -1 37 -7 38 -17 0 -10 2 -11 6 -2 2 6 9 12 14 12 6 0 7
-4 4 -10 -4 -6 6 -10 22 -10 15 0 36 -7 46 -15 11 -7 25 -11 33 -8 8 3 14 -1
14 -11 0 -15 11 -20 38 -17 6 1 12 -6 12 -16 0 -14 2 -15 9 -4 6 9 11 10 15 2
4 -6 16 -11 27 -11 13 0 18 4 13 12 -4 7 -3 8 4 4 7 -4 12 -15 13 -24 0 -11 3
-12 6 -4 6 16 24 16 21 0 -2 -7 4 -12 12 -13 8 -1 14 -7 12 -15 -3 -11 0 -11
14 1 12 9 15 9 10 2 -4 -7 -3 -13 3 -13 5 0 13 5 16 10 3 6 12 10 18 10 7 0 6
-4 -3 -10 -13 -9 -7 -14 13 -11 4 0 7 -5 7 -11 0 -9 4 -8 10 2 8 13 10 12 10
-2 0 -12 8 -18 23 -18 18 0 19 -2 7 -10 -12 -7 -8 -10 15 -10 38 0 76 -10 71
-19 -1 -3 5 -14 16 -23 17 -17 18 -17 18 0 1 16 2 16 14 -1 8 -10 18 -19 23
-20 4 -1 7 -5 5 -9 -1 -5 5 -8 13 -8 8 0 14 -6 13 -12 -3 -15 31 -18 49 -5 13
9 37 -25 26 -37 -3 -3 15 -6 40 -6 26 0 46 -3 46 -7 -1 -5 -1 -15 0 -23 1 -13
2 -13 11 0 8 12 10 11 10 -8 0 -13 6 -22 13 -21 18 3 67 -19 67 -31 0 -5 12
-10 26 -10 14 0 23 -4 20 -9 -3 -4 6 -13 20 -20 14 -6 22 -16 19 -21 -4 -6 6
-8 25 -6 22 2 35 -2 45 -17 8 -11 12 -24 9 -29 -3 -5 0 -9 7 -7 28 3 40 -1 33
-13 -6 -10 -4 -10 7 0 7 6 20 12 28 11 11 0 10 -3 -4 -9 -18 -7 -18 -8 8 -15
15 -4 27 -12 27 -19 0 -6 4 -5 9 3 7 11 10 9 15 -7 4 -11 14 -23 22 -26 8 -3
13 -10 10 -14 -3 -5 1 -9 9 -9 8 0 12 5 9 11 -3 6 1 2 10 -8 12 -14 19 -16 29
-8 10 8 13 5 15 -15 1 -15 3 -28 5 -29 4 -4 45 -12 67 -13 12 -1 13 -3 1 -10
-11 -7 -9 -10 8 -16 12 -3 19 -11 16 -16 -4 -5 7 -9 24 -9 16 0 32 -6 34 -12
3 -8 6 -5 6 6 1 15 4 16 16 6 13 -11 14 -10 8 6 -3 10 -11 22 -17 26 -7 5 -7
8 2 8 6 0 12 5 12 11 0 7 -9 9 -21 6 -12 -3 -22 0 -26 9 -3 8 -12 14 -20 14
-8 0 -12 3 -10 8 2 4 -4 15 -14 24 -12 12 -19 13 -23 5 -4 -11 -10 19 -7 37 1
5 -5 6 -14 3 -8 -4 -15 -3 -16 1 -12 84 -6 102 32 102 16 0 29 -5 29 -12 0
-10 2 -10 8 -1 6 9 13 5 26 -12 10 -14 28 -25 40 -25 16 0 18 -2 7 -9 -11 -7
-9 -10 9 -16 18 -6 20 -9 9 -16 -10 -6 -8 -9 9 -9 12 0 22 -6 22 -12 0 -9 4
-8 10 2 7 12 10 8 10 -14 0 -24 2 -27 15 -16 13 11 14 10 9 -5 -6 -14 -3 -16
14 -11 18 6 21 4 15 -10 -5 -14 -3 -16 11 -11 14 5 17 3 13 -8 -9 -22 10 -28
23 -8 6 10 10 12 7 4 -4 -16 26 -51 46 -52 6 0 3 -4 -8 -9 -17 -7 -16 -9 10
-10 26 -1 27 -3 10 -10 l-20 -9 20 -2 c11 -1 26 -2 33 -2 7 1 15 -10 18 -23 3
-13 10 -24 15 -24 5 0 9 -8 10 -17 0 -11 3 -13 6 -5 2 6 9 12 14 12 6 0 7 -4
4 -10 -3 -5 -1 -18 5 -27 11 -17 11 -17 6 0 -3 11 -2 15 4 12 6 -3 10 -13 10
-21 0 -8 4 -12 10 -9 5 3 12 -6 16 -21 5 -19 9 -22 15 -12 7 11 9 11 9 0 0
-14 29 -47 41 -47 4 0 11 -4 16 -9 5 -5 3 -6 -4 -2 -7 4 -13 2 -13 -3 0 -6 9
-11 20 -11 13 0 20 -7 20 -19 0 -24 16 -36 23 -19 3 7 6 1 6 -14 1 -18 6 -28
16 -28 9 0 15 -10 16 -22 1 -22 1 -22 9 2 8 25 8 25 10 -5 1 -16 2 -34 1 -39
-1 -5 5 -4 13 4 13 10 16 10 16 -4 0 -10 4 -15 9 -11 5 3 13 1 16 -5 4 -6 3
-10 -2 -9 -22 4 -20 -4 10 -33 17 -18 34 -32 38 -31 4 1 10 -9 13 -22 4 -14
11 -25 16 -25 6 0 10 -10 11 -22 0 -21 1 -22 8 -3 7 17 8 17 15 -8 3 -15 13
-27 22 -27 15 0 35 -39 27 -52 -2 -5 4 -8 14 -8 15 0 16 -2 3 -10 -13 -8 -13
-10 2 -10 9 0 20 -5 24 -12 4 -7 3 -8 -4 -4 -7 4 -12 2 -12 -3 0 -6 7 -11 15
-11 8 0 14 -6 12 -12 -1 -7 4 -12 11 -11 6 2 12 -4 12 -12 0 -7 8 -19 18 -24
16 -10 16 -10 -1 -11 -10 0 -15 -5 -12 -10 4 -6 9 -9 13 -7 4 2 15 -4 25 -15
11 -12 13 -18 5 -18 -7 -1 -2 -7 11 -14 17 -10 20 -15 10 -18 -12 -5 -12 -7 0
-19 12 -12 13 -12 6 0 -5 9 -4 12 3 7 7 -4 12 -17 13 -29 0 -21 1 -21 9 -2 5
11 9 14 9 7 1 -7 5 -11 9 -8 5 3 9 -1 9 -9 0 -8 -4 -12 -9 -9 -4 3 -8 -4 -8
-15 0 -14 5 -19 15 -14 9 3 15 2 14 -3 -1 -5 -1 -18 1 -29 l1 -20 9 20 c8 18
9 17 9 -8 1 -18 5 -26 12 -21 7 4 6 -2 -2 -17 -12 -23 -11 -23 6 -9 11 9 16
10 11 2 -4 -7 -1 -15 9 -18 13 -5 13 -9 3 -22 -8 -10 -8 -13 -2 -9 7 4 15 0
18 -9 3 -8 10 -12 16 -9 5 3 10 1 10 -4 0 -6 -5 -11 -10 -11 -6 0 -5 -8 2 -20
7 -11 18 -18 25 -16 12 5 10 -24 -3 -46 -4 -7 -3 -8 4 -4 7 4 12 2 12 -4 0 -6
5 -8 13 -4 7 5 7 1 -3 -12 -8 -10 -11 -16 -6 -12 4 3 16 -2 27 -13 20 -20 26
-34 10 -24 -13 7 20 -58 33 -67 5 -4 14 -4 18 -2 4 3 8 0 8 -5 0 -6 -4 -11 -9
-11 -6 0 -9 -9 -8 -19 1 -12 6 -17 17 -13 8 3 12 2 8 -3 -4 -4 0 -14 10 -22
12 -10 14 -16 5 -19 -7 -3 -13 -10 -13 -15 0 -5 6 -8 13 -6 7 1 12 -7 11 -20
-1 -13 4 -23 12 -23 8 0 14 -6 14 -14 0 -8 6 -17 13 -19 10 -4 10 -6 0 -6 -7
-1 -13 -6 -13 -12 0 -5 5 -7 10 -4 6 3 10 -3 10 -14 0 -27 10 -52 19 -46 4 2
8 -2 8 -10 0 -8 -4 -12 -9 -9 -14 9 -9 -2 12 -26 12 -13 18 -30 15 -37 -2 -8
0 -11 5 -8 6 4 10 -9 10 -29 0 -23 4 -35 12 -33 7 1 12 -7 12 -18 0 -11 5 -23
11 -27 5 -4 11 -18 12 -30 6 -58 21 -89 42 -86 9 2 19 8 23 13 5 6 8 6 8 -2 0
-6 -5 -15 -10 -18 -6 -4 -8 -11 -4 -16 3 -6 -3 -5 -15 3 -16 9 -23 10 -32 1
-9 -9 -6 -10 11 -6 16 4 21 3 16 -6 -5 -7 -2 -10 6 -9 7 2 12 -2 11 -8 -3 -18
34 -48 42 -34 3 6 3 10 -2 9 -24 -4 -25 4 -3 22 14 11 20 18 14 15 -7 -3 -18
2 -25 11 -12 15 -12 16 3 10 15 -5 16 -3 6 18 -6 14 -16 25 -23 25 -6 0 -11
17 -11 38 -2 83 -4 103 -14 97 -5 -3 -10 -1 -10 6 0 6 -8 18 -17 26 -17 14
-17 14 2 9 20 -6 20 -6 1 9 -11 8 -14 15 -8 15 7 0 12 5 12 11 0 5 -4 7 -10 4
-6 -4 -10 10 -10 34 0 30 -4 41 -15 41 -9 0 -15 6 -14 13 3 25 -1 38 -11 32
-6 -4 -10 12 -10 39 0 43 2 46 28 47 15 0 37 2 50 3 24 3 30 -9 10 -17 -8 -3
-5 -6 6 -6 12 -1 16 -6 12 -16 -3 -8 0 -15 7 -15 8 0 8 -3 -2 -9 -7 -5 -10
-14 -7 -20 4 -6 12 -9 17 -5 5 3 9 2 8 -3 -4 -24 2 -42 14 -37 17 6 19 -25 3
-45 -8 -12 -8 -13 2 -7 9 5 13 3 11 -5 -1 -8 -1 -25 0 -39 1 -20 3 -22 11 -10
7 11 10 7 10 -17 0 -30 3 -33 31 -33 18 0 28 -4 24 -10 -4 -6 -11 -7 -17 -4
-7 5 -9 1 -5 -9 3 -10 2 -17 -2 -17 -12 0 -1 -43 13 -52 7 -5 6 -8 -4 -8 -13
0 -13 -1 0 -10 16 -10 16 -12 19 -57 2 -25 3 -26 11 -8 8 19 9 19 9 -2 1 -13
6 -23 12 -23 6 0 7 -5 2 -12 -4 -7 -8 -30 -9 -50 -1 -32 1 -36 14 -25 13 10
14 9 3 -11 -9 -18 -9 -22 1 -20 8 2 12 -6 10 -25 -2 -17 2 -29 12 -33 9 -3 16
-13 16 -21 0 -8 5 -11 10 -8 6 3 10 -4 10 -17 0 -18 -2 -20 -10 -8 -9 13 -10
13 -10 0 0 -9 6 -22 13 -29 10 -10 8 -11 -8 -5 -18 7 -18 6 -6 -9 7 -9 18 -14
24 -10 6 3 7 1 3 -5 -4 -6 -14 -8 -23 -5 -12 5 -14 3 -8 -7 6 -10 4 -12 -11
-7 -18 7 -18 6 -1 -7 18 -14 24 -32 7 -21 -6 3 -7 -1 -3 -10 4 -12 8 -13 13
-5 4 6 10 11 14 11 21 -3 30 0 21 7 -33 24 -1 55 52 50 37 -3 38 -4 44 -48 l6
-45 3 40 c3 35 4 33 9 -20 3 -33 3 -62 -2 -63 -4 -2 -4 -8 -1 -13 3 -6 7 -22
9 -37 1 -14 8 -28 14 -30 15 -5 14 -32 -1 -32 -10 0 -10 -2 -1 -8 7 -4 14 -33
15 -65 1 -31 5 -57 8 -57 4 0 7 -7 7 -15 0 -8 -4 -12 -9 -9 -4 3 -8 1 -8 -5 0
-5 5 -11 12 -13 13 -5 18 -88 5 -88 -4 0 -2 -6 5 -14 7 -8 16 -12 20 -10 8 5
5 -17 -5 -33 -5 -8 -4 -13 2 -13 6 0 11 -8 11 -17 0 -15 -2 -16 -10 -3 -7 12
-9 10 -7 -7 0 -12 4 -20 8 -17 4 2 8 -27 9 -64 3 -117 6 -140 20 -159 14 -16
14 -17 -2 -4 -13 10 -18 10 -18 1 0 -6 9 -14 19 -17 12 -3 17 -11 14 -19 -7
-20 0 -17 21 8 18 20 18 21 0 14 -15 -6 -17 -5 -6 5 6 7 12 31 13 54 0 31 2
36 9 20 5 -13 8 5 7 52 -1 39 -5 75 -9 79 -5 4 -8 14 -7 23 0 12 3 11 9 -4 8
-19 9 -19 9 2 1 12 -3 25 -9 28 -5 3 -10 12 -10 18 0 7 4 6 10 -3 8 -13 10
-13 10 2 0 9 -6 19 -12 21 -10 4 -10 6 0 6 6 1 12 6 12 12 0 5 -4 8 -9 4 -6
-3 -8 4 -4 17 3 13 7 50 8 83 2 47 1 52 -5 25 l-7 -35 -2 43 c0 27 3 41 9 37
6 -3 10 -1 10 4 0 6 -4 11 -10 11 -14 0 -12 53 3 69 10 11 10 13 0 7 -9 -5
-13 4 -14 31 -1 21 -1 44 0 52 2 7 -2 10 -8 7 -6 -4 -8 2 -5 16 3 13 6 40 8
60 2 28 -1 35 -10 27 -9 -7 -12 -2 -10 22 1 17 -4 37 -11 44 -10 11 -10 14 0
18 9 4 9 6 0 6 -7 1 -13 6 -13 12 0 5 5 7 10 4 6 -3 10 1 10 10 0 9 -5 13 -10
10 -8 -5 -16 57 -8 68 1 1 -4 13 -11 26 -11 19 -11 22 0 16 9 -6 11 -3 6 9 -4
10 -7 23 -8 29 0 7 -5 3 -10 -8 -9 -19 -9 -18 -5 3 2 12 -2 29 -11 37 -8 9
-10 15 -3 15 6 0 13 -7 16 -15 4 -8 11 -15 18 -15 6 0 -2 12 -17 25 -15 14
-22 25 -15 26 7 0 4 4 -7 9 -11 5 -14 9 -7 9 6 1 12 9 12 19 0 14 -2 15 -10 2
-8 -13 -10 -13 -10 2 0 9 6 19 13 21 10 4 10 6 0 6 -8 1 -13 16 -13 39 0 27
-3 33 -10 22 -8 -12 -10 -10 -10 8 0 13 4 20 10 17 19 -12 10 7 -12 27 -13 11
-18 17 -13 15 7 -4 9 10 6 36 l-5 42 -7 -35 -6 -35 -2 36 c0 20 -4 39 -8 43
-4 3 -8 17 -10 29 -2 17 -1 19 7 7 7 -11 10 -11 10 -2 0 7 -6 15 -13 18 -7 2
-14 18 -15 35 -1 17 -9 38 -18 46 -8 8 -12 23 -10 32 3 9 1 23 -5 31 -9 12
-10 11 -5 -5 6 -20 6 -20 -9 -1 -12 16 -12 22 -2 28 12 7 10 9 -14 12 -7 0
-13 14 -15 29 -2 24 0 27 12 16 12 -10 13 -9 8 5 -3 9 -10 16 -15 16 -5 0 -9
5 -9 11 0 5 5 7 11 4 6 -4 5 2 -2 13 -7 12 -17 18 -21 16 -4 -3 -8 -1 -8 5 0
5 6 12 13 14 6 3 1 6 -13 6 -18 1 -21 4 -12 10 11 7 11 9 0 13 -7 3 -15 19
-16 34 -1 16 -7 31 -12 32 -6 2 -8 8 -4 13 3 5 0 9 -5 9 -6 0 -10 3 -10 8 1 4
1 14 0 22 -1 13 -2 13 -11 0 -7 -12 -9 -11 -8 5 1 11 -2 38 -6 59 -6 29 -10
36 -17 25 -6 -10 -9 -3 -9 24 0 21 -4 36 -9 33 -5 -4 -12 7 -16 24 -6 27 -15
35 -37 31 -5 0 -8 4 -8 9 0 6 5 10 10 10 6 0 10 5 10 11 0 5 -4 7 -10 4 -6 -3
-7 1 -4 9 4 10 1 16 -8 16 -9 0 -14 9 -14 23 1 12 -4 21 -11 20 -8 -2 -13 7
-13 22 0 14 -4 25 -10 25 -5 0 -10 11 -10 25 0 14 -7 28 -15 31 -22 9 -20 73
2 81 9 4 19 1 21 -5 2 -7 19 -12 38 -12 24 0 34 -5 34 -15 0 -8 7 -15 15 -15
9 0 12 -6 9 -15 -4 -8 -1 -15 6 -15 6 0 9 -4 6 -9 -3 -5 1 -12 9 -15 8 -3 15
-9 14 -13 -3 -20 2 -34 11 -28 6 4 10 -8 10 -29 0 -27 4 -36 18 -37 14 0 14
-2 -3 -9 -20 -8 -20 -9 1 -9 20 -1 58 -33 49 -42 -2 -3 5 -5 16 -6 19 -2 19
-1 -2 16 -16 13 -19 20 -10 25 7 5 10 2 9 -5 -2 -8 7 -14 23 -14 14 -1 26 5
26 12 0 6 -4 10 -9 7 -4 -3 -11 2 -14 10 -3 9 -10 14 -14 11 -9 -6 -24 59 -22
95 2 23 1 23 -7 5 -9 -19 -10 -19 -10 2 -1 16 -5 21 -16 16 -9 -3 -15 -2 -14
3 1 5 1 25 0 44 -1 27 -4 31 -11 20 -8 -13 -10 -12 -10 3 0 9 6 17 13 18 6 0
0 6 -14 12 -28 13 -29 14 -29 48 0 11 -4 18 -9 15 -5 -3 -12 1 -15 10 -3 8 -2
13 2 10 5 -3 9 1 9 9 0 8 -4 12 -9 9 -4 -3 -8 0 -8 6 0 6 -4 8 -10 5 -5 -3
-11 3 -11 14 -3 40 -5 46 -16 44 -7 -2 -10 6 -8 17 3 15 -2 20 -16 20 -11 0
-19 6 -18 13 4 30 -2 47 -17 47 -8 0 -12 5 -9 10 3 6 -1 13 -9 16 -9 3 -16 17
-16 30 0 14 -5 23 -12 21 -7 -1 -12 4 -11 11 2 6 -4 12 -12 12 -13 0 -21 25
-16 52 0 5 -4 7 -11 5 -7 -1 -13 5 -13 13 0 8 -7 14 -14 12 -7 -1 -10 1 -7 6
3 5 -4 18 -14 30 -11 12 -20 26 -20 32 0 5 -5 10 -11 10 -5 0 -7 -5 -3 -12 5
-7 3 -8 -5 -4 -7 5 -10 10 -7 13 3 3 1 15 -5 26 -8 14 -8 18 0 13 6 -4 9 -2 6
6 -3 8 -15 14 -26 15 -27 2 -28 3 -31 41 -2 25 -5 29 -16 20 -7 -6 -12 -7 -11
-2 1 5 1 18 -1 29 l-1 20 -9 -20 -9 -20 -1 20 c-2 11 -2 23 -1 28 0 4 -6 7
-14 7 -8 0 -15 7 -15 16 0 8 -4 13 -9 10 -5 -3 -14 1 -21 9 -11 13 -10 15 6
10 15 -5 15 -3 -3 11 -13 9 -23 26 -23 38 0 17 2 18 10 6 5 -8 10 -10 10 -4 0
17 -25 35 -36 26 -5 -4 2 5 15 20 14 16 21 31 18 35 -4 3 -7 2 -7 -3 0 -5 -8
-10 -18 -10 -10 0 -19 6 -19 12 0 7 7 9 16 6 13 -5 14 -3 4 10 -7 8 -9 19 -5
23 4 5 1 5 -5 1 -8 -4 -13 -1 -13 8 0 9 -5 16 -11 16 -6 0 -9 7 -5 15 3 8 0
14 -6 12 -6 -1 -12 13 -13 31 -1 17 2 32 7 32 5 0 7 4 4 9 -4 5 0 8 6 7 30 -7
48 -19 48 -35 0 -14 2 -14 10 -1 8 12 10 10 10 -10 0 -18 3 -21 9 -12 7 11 9
11 14 -2 4 -9 13 -16 21 -16 10 0 13 -6 9 -17 -3 -10 -3 -15 1 -11 5 4 19 3
32 -2 20 -8 24 -6 24 8 0 14 2 15 10 2 7 -12 9 -10 7 7 0 12 -5 19 -9 17 -4
-3 -8 3 -8 13 0 14 -2 15 -9 5 -7 -11 -10 -10 -15 3 -3 9 -6 26 -7 38 0 21 -1
21 -9 2 l-9 -20 -1 20 c-2 11 -2 24 -1 29 1 5 -6 3 -15 -5 -10 -8 -15 -9 -11
-2 4 6 3 14 -3 18 -5 3 -10 1 -10 -6 0 -7 -3 -9 -6 -6 -4 4 -1 14 7 24 12 15
12 16 -2 11 -9 -4 -16 -1 -16 8 0 7 5 10 11 7 6 -4 5 0 -2 9 -8 11 -23 15 -40
12 -21 -3 -24 -2 -12 6 13 9 13 11 0 20 -13 9 -13 10 0 11 8 0 4 4 -10 8 -14
4 -26 12 -26 19 -1 7 -2 18 -3 25 -1 8 -4 7 -11 -3 -8 -13 -10 -12 -10 3 0 9
-7 17 -15 17 -8 0 -15 8 -15 18 0 14 -2 15 -10 2 -8 -12 -10 -11 -10 8 0 14
-6 22 -17 22 -14 0 -15 2 -5 9 10 6 7 10 -12 15 -14 3 -26 11 -26 16 0 6 -7
10 -15 10 -8 0 -14 3 -14 8 4 21 -3 31 -16 25 -10 -3 -15 0 -13 8 2 8 -3 13
-11 11 -12 -3 -12 -1 0 14 9 12 9 15 2 10 -12 -6 -18 4 -14 26 0 4 -6 5 -14 2
-7 -3 -22 4 -32 15 -9 12 -27 21 -39 21 -17 0 -21 5 -17 19 3 14 -3 21 -26 29
-30 11 -44 24 -18 19 6 -2 2 1 -10 7 -13 5 -23 18 -23 28 0 10 -5 18 -11 18
-5 0 -7 -4 -4 -10 12 -20 -5 -9 -37 22 -18 18 -32 36 -31 40 2 4 -6 8 -17 8
-11 0 -23 7 -26 15 -4 8 -10 12 -15 9 -5 -3 -9 0 -9 6 0 6 -12 15 -26 20 -16
7 -23 14 -18 22 5 8 0 7 -11 -2 -11 -9 -16 -10 -11 -2 5 8 1 12 -12 12 -13 0
-19 6 -18 18 0 9 -5 16 -11 15 -7 -2 -13 2 -13 7 0 6 -7 10 -15 10 -8 0 -15 7
-15 15 0 10 -10 15 -27 16 -25 0 -26 1 -8 9 l20 9 -20 1 c-11 2 -25 2 -31 1
-7 -1 -14 5 -18 14 -3 8 -12 15 -20 15 -8 0 -18 4 -21 10 -4 6 1 7 12 4 15 -5
16 -4 3 5 -8 6 -26 11 -40 11 -20 0 -22 2 -10 10 13 8 12 10 -2 10 -10 0 -18
7 -18 15 0 8 -5 15 -11 15 -5 0 -7 -6 -3 -12 6 -10 5 -10 -7 -1 -12 10 -18 10
-29 0 -10 -10 -12 -8 -7 11 5 19 3 21 -9 11 -12 -10 -13 -9 -8 5 4 11 1 16
-12 16 -16 0 -17 2 -4 10 11 7 8 10 -16 10 -19 0 -34 6 -38 15 -3 8 -12 15
-20 15 -7 0 -16 7 -20 15 -3 8 -12 12 -21 9 -9 -4 -15 -1 -15 7 0 11 -3 11
-10 -1 -8 -13 -10 -13 -10 2 0 15 -50 36 -73 30 -4 -1 -6 1 -6 5 1 5 1 17 -1
28 l-1 20 -9 -20 c-8 -18 -9 -18 -9 -2 -1 10 -5 16 -10 12 -5 -3 -16 2 -24 10
-9 8 -23 15 -33 15 -12 0 -14 3 -6 13 9 10 3 12 -24 12 -22 -1 -38 4 -44 14
-9 14 -11 14 -20 1 -8 -13 -10 -13 -10 1 0 9 -7 22 -15 29 -9 8 -15 8 -15 2 0
-6 6 -13 13 -15 9 -4 9 -6 -1 -6 -7 -1 -15 6 -18 14 -4 8 -12 15 -20 15 -8 0
-14 5 -14 10 0 6 -8 10 -19 10 -10 0 -24 7 -31 15 -7 8 -16 12 -21 9 -5 -3 -9
0 -9 6 0 7 -13 10 -34 9 -36 -4 -72 21 -55 38 6 6 2 9 -13 8 -13 -1 -31 5 -41
13 -10 9 -31 15 -48 14 -21 -2 -29 2 -29 14 0 11 -6 15 -20 11 -11 -3 -27 1
-35 9 -8 9 -16 10 -20 4 -3 -5 -12 -10 -18 -10 -7 0 -6 4 3 10 15 10 14 10
-22 14 -7 0 -13 7 -13 14 0 6 -3 12 -7 12 -5 0 -15 0 -24 0 -8 0 -13 -4 -9
-10 3 -5 -7 -3 -22 5 -15 8 -34 15 -41 15 -7 0 -10 5 -7 10 3 6 -1 10 -9 10
-9 0 -16 5 -16 11 0 8 -4 8 -14 0 -11 -9 -16 -9 -22 0 -5 8 -3 10 7 4 8 -5 11
-4 6 0 -11 13 -47 13 -47 1 0 -6 -4 -5 -9 3 -5 8 -16 11 -26 7 -13 -5 -16 -2
-11 10 6 15 4 15 -11 3 -11 -9 -14 -10 -9 -1 6 11 -11 17 -37 13 -4 -1 -10 6
-14 15 -5 13 -7 13 -14 2 -7 -10 -9 -10 -9 0 0 8 -16 12 -46 12 -27 0 -43 4
-39 10 3 6 1 10 -4 10 -6 0 -11 -6 -12 -12 0 -7 -4 -4 -9 7 -6 14 -9 15 -10 5
0 -9 -6 -6 -15 10 -8 14 -14 19 -15 11 0 -10 -3 -11 -13 -3 -7 6 -35 12 -62
14 -29 2 -49 8 -48 14 1 6 -4 11 -12 11 -8 0 -12 -4 -9 -9 3 -4 0 -8 -5 -8 -6
0 -11 4 -11 8 0 13 -44 12 -52 -1 -6 -9 -8 -9 -8 1 0 6 -8 12 -17 13 -15 0
-15 2 2 9 19 8 19 9 -2 9 -13 1 -23 -3 -23 -9 0 -5 -5 -10 -11 -10 -5 0 -8 4
-5 9 3 5 -3 11 -14 14 -11 3 -20 0 -20 -5 0 -6 -10 -3 -22 8 -12 10 -18 13
-14 7 4 -7 2 -13 -3 -13 -6 0 -11 5 -11 11 0 8 -6 7 -17 -2 -14 -12 -16 -12
-11 2 4 11 -1 15 -17 15 -14 0 -21 -4 -17 -10 3 -6 -1 -5 -10 2 -9 7 -31 14
-48 14 -17 1 -33 6 -37 11 -4 6 -1 7 7 2 9 -5 11 -4 6 4 -6 9 -11 9 -22 0 -8
-6 -14 -8 -14 -4 0 4 -8 1 -17 -6 -10 -8 -14 -9 -10 -2 4 6 3 14 -3 18 -5 3
-10 1 -10 -4 0 -6 -8 -11 -17 -11 -15 0 -16 2 -3 10 9 6 10 10 3 10 -6 0 -15
-4 -18 -10 -3 -5 -12 -10 -18 -10 -7 0 -6 4 3 10 11 8 6 10 -20 8 -19 -1 -41
-6 -48 -11 -9 -7 -11 -6 -7 5 4 11 -2 13 -29 10 -24 -3 -41 1 -52 13 -16 16
-19 16 -29 1 -14 -19 -26 -21 -22 -4 1 6 -10 12 -25 13 -16 1 -28 -3 -28 -9 0
-6 -4 -5 -9 3 -5 7 -13 11 -19 7 -6 -3 -13 2 -15 11 -4 15 -5 15 -6 2 -1 -13
-11 -15 -47 -13 -25 2 -51 7 -58 12 -6 4 -24 8 -41 9 -29 2 -29 2 -5 -7 24 -8
23 -8 -7 -7 -17 1 -29 5 -27 9 3 4 -8 8 -25 8 -16 0 -32 -6 -34 -12 -4 -10 -6
-10 -6 0 -1 6 -6 12 -12 12 -5 0 -8 -4 -5 -8 3 -5 -1 -9 -9 -9 -8 0 -12 4 -9
9 3 4 1 8 -5 8 -5 0 -12 -6 -14 -12 -4 -10 -6 -10 -6 0 -1 16 -63 16 -79 0 -9
-9 -12 -9 -12 0 0 7 -15 12 -36 12 -19 0 -33 -4 -30 -8 2 -4 -4 -8 -14 -9 -11
-1 -22 2 -25 8 -4 5 -30 9 -58 8 -38 -1 -45 -3 -27 -8 l25 -7 -23 -6 c-15 -4
-25 -2 -29 8 -3 8 -9 14 -15 14 -5 0 -6 -5 -2 -12 5 -8 2 -9 -10 -5 -10 4 -23
4 -29 0 -23 -14 -112 -9 -119 7 -5 12 -7 11 -7 -4z m272 -3 c-7 -2 -19 -2 -25
0 -7 3 -2 5 12 5 14 0 19 -2 13 -5z m324 1 c-3 -3 -12 -4 -19 -1 -8 3 -5 6 6
6 11 1 17 -2 13 -5z m-1717 -238 c0 -2 -7 -6 -15 -10 -8 -3 -15 -1 -15 4 0 6
7 10 15 10 8 0 15 -2 15 -4z m-180 -56 c0 -5 -5 -10 -11 -10 -5 0 -7 5 -4 10
3 6 8 10 11 10 2 0 4 -4 4 -10z m3730 -109 c0 -5 -9 -7 -20 -4 -11 3 -20 7
-20 9 0 2 9 4 20 4 11 0 20 -4 20 -9z m-4613 -317 c-3 -3 -12 -4 -19 -1 -8 3
-5 6 6 6 11 1 17 -2 13 -5z m2553 -388 c0 -2 -7 -7 -16 -10 -8 -3 -12 -2 -9 4
6 10 25 14 25 6z m-315 -16 c3 -5 1 -10 -4 -10 -6 0 -11 5 -11 10 0 6 2 10 4
10 3 0 8 -4 11 -10z m902 -36 c-3 -3 -12 -4 -19 -1 -8 3 -5 6 6 6 11 1 17 -2
13 -5z m-1277 -22 c0 -5 -7 -9 -15 -9 -8 0 -12 4 -9 9 3 4 9 8 15 8 5 0 9 -4
9 -8z m-350 -76 c0 -2 -9 -6 -20 -9 -11 -3 -18 -1 -14 4 5 9 34 13 34 5z
m-766 -344 c3 -5 -1 -9 -9 -9 -8 0 -12 4 -9 9 3 4 7 8 9 8 2 0 6 -4 9 -8z
m3716 -2 c0 -5 -5 -10 -11 -10 -5 0 -7 5 -4 10 3 6 8 10 11 10 2 0 4 -4 4 -10z
m-4590 -604 c0 -3 -4 -8 -10 -11 -5 -3 -10 -1 -10 4 0 6 5 11 10 11 6 0 10 -2
10 -4z m6897 -562 c-3 -3 -12 -4 -19 -1 -8 3 -5 6 6 6 11 1 17 -2 13 -5z m280
-896 c-3 -8 -6 -5 -6 6 -1 11 2 17 5 13 3 -3 4 -12 1 -19z m-370 -30 c-3 -8
-6 -5 -6 6 -1 11 2 17 5 13 3 -3 4 -12 1 -19z m-9030 -30 c-3 -7 -5 -2 -5 12
0 14 2 19 5 13 2 -7 2 -19 0 -25z m9217 -66 c2 -4 -5 -9 -17 -9 -17 -2 -19 0
-7 7 18 12 18 12 24 2z m-99 -231 c3 -5 2 -12 -3 -15 -5 -3 -9 1 -9 9 0 17 3
19 12 6z m492 -763 c-3 -7 -5 -2 -5 12 0 14 2 19 5 13 2 -7 2 -19 0 -25z m0
-255 c-3 -10 -5 -2 -5 17 0 19 2 27 5 18 2 -10 2 -26 0 -35z m-417 -208 c0 -8
-2 -15 -4 -15 -2 0 -6 7 -10 15 -3 8 -1 15 4 15 6 0 10 -7 10 -15z m-9383
-437 c-3 -8 -6 -5 -6 6 -1 11 2 17 5 13 3 -3 4 -12 1 -19z m9508 -406 c-3 -3
-11 0 -18 7 -9 10 -8 11 6 5 10 -3 15 -9 12 -12z m520 -250 c3 -16 0 -19 -13
-15 -9 4 -11 8 -5 10 7 3 9 12 6 21 -3 9 -3 14 1 11 4 -4 8 -16 11 -27z m-305
-306 c0 -8 -7 -16 -15 -20 -12 -4 -13 -2 -2 14 14 24 17 25 17 6z m225 -56
c-3 -5 -12 -10 -18 -10 -7 0 -6 4 3 10 19 12 23 12 15 0z m-8545 -15 c0 -8 -4
-15 -10 -15 -5 0 -7 7 -4 15 4 8 8 15 10 15 2 0 4 -7 4 -15z m8407 -77 c-3 -8
-6 -5 -6 6 -1 11 2 17 5 13 3 -3 4 -12 1 -19z m70 -120 c-3 -8 -6 -5 -6 6 -1
11 2 17 5 13 3 -3 4 -12 1 -19z m-8317 -169 c0 -11 -4 -18 -10 -14 -5 3 -7 12
-3 20 7 21 13 19 13 -6z m800 -1033 c0 -3 -4 -8 -10 -11 -5 -3 -10 -1 -10 4 0
6 5 11 10 11 6 0 10 -2 10 -4z m6777 -178 c-3 -8 -6 -5 -6 6 -1 11 2 17 5 13
3 -3 4 -12 1 -19z m-7462 -688 c3 -5 1 -10 -4 -10 -6 0 -11 5 -11 10 0 6 2 10
4 10 3 0 8 -4 11 -10z m4798 -17 c-7 -2 -19 -2 -25 0 -7 3 -2 5 12 5 14 0 19
-2 13 -5z m-4338 -353 c3 -5 1 -10 -4 -10 -6 0 -11 5 -11 10 0 6 2 10 4 10 3
0 8 -4 11 -10z m5150 -530 c-3 -5 -14 -10 -23 -9 -14 0 -13 2 3 9 27 11 27 11
20 0z m-4025 -86 c0 -2 -9 -4 -21 -4 -11 0 -18 4 -14 10 5 8 35 3 35 -6z
m3625 -74 c3 -5 1 -10 -4 -10 -6 0 -11 5 -11 10 0 6 2 10 4 10 3 0 8 -4 11
-10z m-872 -217 c-7 -2 -19 -2 -25 0 -7 3 -2 5 12 5 14 0 19 -2 13 -5z m-153
-21 c0 -5 -7 -9 -15 -9 -8 0 -12 4 -9 9 3 4 9 8 15 8 5 0 9 -4 9 -8z m-393
-28 c-3 -3 -12 -4 -19 -1 -8 3 -5 6 6 6 11 1 17 -2 13 -5z"/>
<path d="M6028 10543 c7 -3 16 -2 19 1 4 3 -2 6 -13 5 -11 0 -14 -3 -6 -6z"/>
<path d="M7560 10120 c0 -5 7 -7 15 -4 8 4 15 8 15 10 0 2 -7 4 -15 4 -8 0
-15 -4 -15 -10z"/>
<path d="M8548 9563 c7 -3 16 -2 19 1 4 3 -2 6 -13 5 -11 0 -14 -3 -6 -6z"/>
<path d="M6718 9213 c6 -2 18 -2 25 0 6 3 1 5 -13 5 -14 0 -19 -2 -12 -5z"/>
<path d="M8398 8443 c7 -3 16 -2 19 1 4 3 -2 6 -13 5 -11 0 -14 -3 -6 -6z"/>
<path d="M9361 8414 c0 -11 3 -14 6 -6 3 7 2 16 -1 19 -3 4 -6 -2 -5 -13z"/>
<path d="M2760 8359 c0 -5 5 -7 10 -4 6 3 10 8 10 11 0 2 -4 4 -10 4 -5 0 -10
-5 -10 -11z"/>
<path d="M1081 8164 c0 -11 3 -14 6 -6 3 7 2 16 -1 19 -3 4 -6 -2 -5 -13z"/>
<path d="M8902 7880 c0 -14 2 -19 5 -12 2 6 2 18 0 25 -3 6 -5 1 -5 -13z"/>
<path d="M9761 7344 c0 -11 3 -14 6 -6 3 7 2 16 -1 19 -3 4 -6 -2 -5 -13z"/>
<path d="M9812 7240 c0 -14 2 -19 5 -12 2 6 2 18 0 25 -3 6 -5 1 -5 -13z"/>
<path d="M7039 6936 c-2 -2 -33 -6 -69 -9 -125 -10 -244 -66 -350 -164 -160
-149 -241 -342 -235 -566 3 -112 11 -156 46 -253 69 -189 219 -342 407 -412
95 -36 275 -41 382 -11 231 64 414 260 476 509 24 99 24 288 0 380 -77 286
-324 508 -581 519 -33 1 -62 4 -66 7 -3 2 -8 2 -10 0z m169 -269 c111 -54 201
-156 243 -277 28 -82 35 -222 14 -300 -77 -293 -355 -438 -601 -312 -86 44
-181 166 -220 282 -27 83 -25 235 5 323 50 147 146 250 276 297 82 29 209 23
283 -13z"/>
<path d="M3151 6888 c-15 -40 -34 -165 -28 -182 6 -14 39 -16 282 -16 168 0
275 -4 275 -10 0 -16 -14 -38 -472 -768 -64 -102 -119 -195 -120 -207 -4 -25
19 -156 29 -166 14 -13 854 -18 858 -5 2 6 6 31 9 56 4 25 8 59 11 75 3 17 7
42 9 57 7 44 -7 48 -114 34 -131 -16 -492 -27 -511 -15 -9 5 20 59 92 176 57
92 107 173 112 178 5 6 98 151 207 324 l198 315 -5 55 c-3 30 -9 66 -13 80
l-6 26 -300 1 c-164 0 -345 4 -401 8 -102 8 -103 8 -112 -16z"/>
<path d="M5486 6903 c-1 -2 -55 -3 -119 -4 -126 -1 -135 -5 -131 -54 18 -228
23 -691 10 -1000 -4 -110 -8 -218 -8 -240 1 -82 -8 -75 95 -75 50 0 107 -1
125 -3 40 -4 49 10 46 73 -16 357 -16 386 -2 397 8 7 63 10 150 9 123 -1 139
-3 157 -21 11 -11 56 -105 101 -210 45 -104 88 -202 96 -217 l14 -27 138 2
c84 1 136 6 135 12 -1 6 -54 124 -119 264 l-117 254 39 31 c131 103 174 196
174 381 0 226 -114 361 -355 422 -26 6 -423 12 -429 6z m298 -207 c168 -19
239 -98 239 -267 -1 -115 -43 -178 -145 -215 -54 -19 -364 -21 -383 -2 -11 11
-7 449 4 467 15 23 151 31 285 17z"/>
<path d="M4166 6721 c11 -246 11 -706 0 -891 -10 -181 -11 -274 -2 -289 5 -7
118 -10 349 -9 300 2 429 -2 505 -17 30 -5 38 10 52 100 22 140 27 130 -60
129 -41 -1 -115 -4 -165 -8 -141 -10 -357 -9 -386 2 -40 16 -49 58 -49 223 0
134 2 149 19 161 15 11 70 13 243 12 122 -1 246 -5 274 -7 28 -3 55 -2 61 1 6
4 14 50 18 102 4 52 8 100 9 105 0 6 -42 9 -114 8 -410 -7 -479 -6 -494 6 -13
11 -16 39 -16 152 0 161 6 185 52 197 34 9 204 8 335 -2 122 -9 244 -9 254 1
11 11 -8 172 -22 189 -7 8 -129 11 -440 11 l-430 0 7 -176z"/>
<path d="M445 6680 c3 -5 8 -10 11 -10 2 0 4 5 4 10 0 6 -5 10 -11 10 -5 0 -7
-4 -4 -10z"/>
<path d="M1572 6450 c0 -14 2 -19 5 -12 2 6 2 18 0 25 -3 6 -5 1 -5 -13z"/>
<path d="M9857 6177 c4 -7 -1 -8 -12 -3 -15 5 -16 4 -5 -9 7 -9 13 -14 14 -13
1 2 7 10 14 19 9 13 9 16 -3 16 -8 0 -11 -5 -8 -10z"/>
<path d="M342 6150 c0 -14 2 -19 5 -12 2 6 2 18 0 25 -3 6 -5 1 -5 -13z"/>
<path d="M9870 6140 c0 -6 7 -10 15 -10 8 0 15 2 15 4 0 2 -7 6 -15 10 -8 3
-15 1 -15 -4z"/>
<path d="M9870 6100 c0 -5 5 -10 10 -10 6 0 10 -5 10 -11 0 -5 -4 -8 -8 -5 -5
3 -9 -1 -9 -9 0 -8 5 -15 10 -15 6 0 2 -9 -8 -20 -13 -15 -14 -19 -4 -15 8 3
20 15 27 26 8 12 9 18 3 14 -14 -8 -14 8 -1 21 6 6 3 14 -10 22 -12 7 -20 8
-20 2z"/>
<path d="M9890 6002 c0 -5 7 -9 15 -9 8 0 12 4 9 9 -3 4 -9 8 -15 8 -5 0 -9
-4 -9 -8z"/>
<path d="M10131 5934 c0 -11 3 -14 6 -6 3 7 2 16 -1 19 -3 4 -6 -2 -5 -13z"/>
<path d="M272 5391 c-1 -228 1 -412 4 -409 7 8 11 676 3 758 -3 36 -6 -121 -7
-349z"/>
<path d="M3335 5190 c-213 -51 -385 -219 -454 -445 -41 -131 -46 -319 -12
-453 32 -129 91 -233 186 -327 135 -135 244 -179 445 -180 148 0 233 19 346
75 l77 39 66 -33 c91 -45 97 -43 94 24 -2 44 -13 543 -13 588 0 16 -256 16
-263 -1 -5 -12 -2 -71 8 -167 3 -30 8 -90 11 -132 l6 -77 -58 -29 c-154 -76
-316 -84 -442 -20 -85 43 -200 199 -219 296 -41 222 0 386 131 518 78 78 147
107 258 107 108 1 178 -35 282 -143 42 -44 80 -80 85 -80 11 0 70 58 117 115
l38 47 -19 34 c-29 54 -133 145 -212 187 -143 75 -302 95 -458 57z"/>
<path d="M5862 5197 c-5 -7 -19 -37 -30 -67 -11 -30 -66 -167 -122 -305 -86
-211 -173 -443 -350 -927 -16 -42 -26 -79 -22 -82 3 -3 60 -6 128 -6 l122 0
15 38 c8 20 22 64 32 97 31 109 54 153 83 159 46 9 516 4 534 -6 24 -12 41
-47 73 -148 48 -148 33 -137 185 -138 71 0 130 2 130 4 0 6 -127 341 -140 369
-5 11 -57 144 -116 295 -58 151 -147 377 -196 502 -88 224 -89 226 -116 221
-34 -7 -138 -7 -174 0 -15 3 -31 0 -36 -6z m171 -432 c59 -142 147 -381 147
-400 0 -31 -42 -39 -200 -41 -189 -2 -214 6 -199 62 10 33 43 124 104 279 13
33 38 98 55 143 18 46 36 80 40 75 4 -4 28 -57 53 -118z"/>
<path d="M4475 5183 c-11 -2 -67 -4 -125 -5 l-105 -3 5 -170 c6 -210 6 -711 0
-985 l-5 -205 90 -1 c50 -1 104 -4 122 -7 50 -8 54 5 47 144 -9 180 -10 317
-1 326 15 15 267 14 296 -1 21 -11 41 -49 100 -188 97 -226 113 -262 125 -270
11 -8 276 -9 276 -1 0 8 -58 138 -122 271 -109 230 -125 272 -99 272 17 0 129
116 148 155 45 90 61 268 33 371 -16 59 -65 139 -111 182 -41 38 -136 86 -204
103 -43 11 -404 20 -470 12z m345 -213 c83 -14 125 -35 156 -75 45 -59 62
-161 44 -252 -17 -80 -71 -133 -155 -152 -54 -12 -280 -17 -330 -7 -11 3 -26
5 -33 5 -11 1 -13 45 -10 235 1 129 6 238 11 242 20 20 207 22 317 4z"/>
<path d="M6719 5166 c0 -6 -3 -67 -5 -136 -2 -69 -5 -172 -7 -230 -2 -58 1
-121 6 -140 8 -31 124 -270 174 -360 11 -19 52 -96 91 -170 39 -74 93 -175
119 -225 l48 -90 110 -3 c61 -1 115 1 121 5 6 5 34 53 64 108 29 55 67 127 85
160 123 227 175 326 233 445 l66 135 -1 235 c-1 129 -2 245 -2 257 -1 21 -5
21 -132 21 l-130 0 5 -237 c7 -271 10 -258 -81 -436 -57 -114 -172 -326 -203
-377 -20 -33 -21 -32 -67 52 -17 30 -41 73 -53 95 -79 141 -111 200 -150 280
l-45 90 1 110 c0 61 4 181 8 267 l7 156 -130 0 c-91 0 -131 -3 -132 -12z"/>
<path d="M9730 4725 c0 -8 4 -15 10 -15 5 0 7 7 4 15 -4 8 -8 15 -10 15 -2 0
-4 -7 -4 -15z"/>
<path d="M1515 4551 c-3 -5 -2 -12 3 -15 5 -3 9 1 9 9 0 17 -3 19 -12 6z"/>
<path d="M9735 4019 c-4 -6 -5 -12 -2 -15 2 -3 7 2 10 11 7 17 1 20 -8 4z"/>
<path d="M9301 3694 c0 -11 3 -14 6 -6 3 7 2 16 -1 19 -3 4 -6 -2 -5 -13z"/>
<path d="M9853 3693 c9 -2 23 -2 30 0 6 3 -1 5 -18 5 -16 0 -22 -2 -12 -5z"/>
<path d="M1990 3305 c0 -8 4 -15 10 -15 5 0 7 7 4 15 -4 8 -8 15 -10 15 -2 0
-4 -7 -4 -15z"/>
<path d="M2440 2690 c0 -6 7 -10 15 -10 8 0 15 2 15 4 0 2 -7 6 -15 10 -8 3
-15 1 -15 -4z"/>
<path d="M9710 2619 c0 -5 5 -7 10 -4 6 3 10 8 10 11 0 2 -4 4 -10 4 -5 0 -10
-5 -10 -11z"/>
<path d="M9365 2139 c-4 -6 -5 -12 -2 -15 2 -3 7 2 10 11 7 17 1 20 -8 4z"/>
<path d="M1875 1670 c-3 -5 -1 -10 4 -10 6 0 11 5 11 10 0 6 -2 10 -4 10 -3 0
-8 -4 -11 -10z"/>
<path d="M6665 1550 c-3 -6 1 -7 9 -4 18 7 21 14 7 14 -6 0 -13 -4 -16 -10z"/>
<path d="M4723 1413 c9 -2 23 -2 30 0 6 3 -1 5 -18 5 -16 0 -22 -2 -12 -5z"/>
<path d="M6010 1390 c0 -5 5 -10 11 -10 5 0 7 5 4 10 -3 6 -8 10 -11 10 -2 0
-4 -4 -4 -10z"/>
<path d="M8148 953 c7 -3 16 -2 19 1 4 3 -2 6 -13 5 -11 0 -14 -3 -6 -6z"/>
<path d="M4098 403 c7 -3 16 -2 19 1 4 3 -2 6 -13 5 -11 0 -14 -3 -6 -6z"/>
<path d="M4336 352 c-3 -5 1 -9 9 -9 8 0 12 4 9 9 -3 4 -7 8 -9 8 -2 0 -6 -4
-9 -8z"/>
<path d="M6677 349 c7 -7 15 -10 18 -7 3 3 -2 9 -12 12 -14 6 -15 5 -6 -5z"/>
<path d="M6378 293 c6 -2 18 -2 25 0 6 3 1 5 -13 5 -14 0 -19 -2 -12 -5z"/>
</g>
</svg>
